<?xml version="1.0" standalone="no"?>
<!DOCTYPE svg PUBLIC "-//W3C//DTD SVG 20010904//EN"
 "http://www.w3.org/TR/2001/REC-SVG-20010904/DTD/svg10.dtd">
<svg version="1.0" xmlns="http://www.w3.org/2000/svg"
 width="300.000000pt" height="300.000000pt" viewBox="0 0 300.000000 300.000000"
 preserveAspectRatio="xMidYMid meet">
<metadata>
Created by potrace 1.14, written by Peter Selinger 2001-2017
</metadata>
<g transform="translate(0.000000,300.000000) scale(0.100000,-0.100000)"
fill="#000000" stroke="none">
<path d="M530 2981 c-275 -73 -462 -270 -519 -548 -7 -36 -11 -341 -11 -935 0
-934 0 -933 47 -1058 40 -109 132 -229 227 -299 75 -55 115 -76 202 -108 l79
-28 920 -2 c991 -3 973 -3 1100 49 82 35 180 105 244 174 62 68 130 186 152
264 7 25 15 52 18 60 3 8 6 424 8 925 3 994 4 973 -55 1110 -68 159 -216 304
-372 363 -127 49 -73 47 -1055 48 -842 2 -926 1 -985 -15z"/>
</g>
</svg>
