<?xml version="1.0" standalone="no"?>
<!DOCTYPE svg PUBLIC "-//W3C//DTD SVG 20010904//EN"
 "http://www.w3.org/TR/2001/REC-SVG-20010904/DTD/svg10.dtd">
<svg version="1.0" xmlns="http://www.w3.org/2000/svg"
 width="700.000000pt" height="700.000000pt" viewBox="0 0 700.000000 700.000000"
 preserveAspectRatio="xMidYMid meet">
<metadata>
Created by potrace 1.14, written by Peter Selinger 2001-2017
</metadata>
<g transform="translate(0.000000,700.000000) scale(0.100000,-0.100000)"
fill="#000000" stroke="none">
<path d="M1858 6155 c-2 -1 -39 -5 -83 -8 -44 -3 -105 -11 -135 -17 -30 -6
-68 -13 -85 -16 -99 -17 -188 -56 -310 -137 -147 -98 -349 -277 -422 -374 -15
-21 -30 -40 -33 -43 -15 -13 -41 -83 -38 -103 4 -27 31 -25 68 4 83 65 108 80
156 99 62 23 134 27 134 8 -1 -17 -68 -66 -170 -123 -122 -69 -166 -101 -245
-180 -81 -81 -133 -156 -182 -262 -33 -72 -76 -200 -87 -260 -2 -15 -9 -53
-15 -83 -23 -120 -34 -279 -35 -490 0 -146 10 -359 19 -415 5 -32 18 -97 20
-105 1 -3 5 -21 9 -40 42 -180 242 -426 501 -617 230 -168 511 -301 794 -373
176 -45 236 -32 312 66 48 62 94 104 114 104 8 0 29 -26 47 -57 18 -31 38 -58
44 -60 20 -7 73 47 100 102 48 99 42 253 -16 435 -40 124 -75 197 -181 380
-32 55 -52 59 -44 9 40 -246 41 -261 39 -342 -8 -248 -169 -285 -479 -107
-165 94 -340 275 -440 455 -54 97 -106 228 -131 335 -33 138 -29 320 10 440
98 300 228 447 459 517 75 22 148 30 342 38 153 5 256 28 353 80 68 36 174
127 207 178 17 27 17 29 -2 55 -11 15 -74 59 -141 97 -197 114 -260 167 -179
150 51 -11 283 -126 422 -210 105 -62 130 -74 140 -63 7 7 79 94 160 193 164
199 252 314 292 383 l27 45 -38 33 c-47 41 -231 132 -350 173 -86 30 -283 75
-376 85 -25 3 -72 8 -105 12 -56 6 -441 14 -447 9z m-243 -522 c19 -11 19 -12
-10 -23 -28 -11 -160 -15 -215 -7 -64 10 -90 30 -52 40 36 9 257 1 277 -10z"/>
<path d="M4698 6149 c-96 -10 -151 -18 -211 -30 -29 -5 -65 -12 -82 -15 -153
-25 -491 -171 -554 -238 l-24 -25 28 -46 c39 -67 153 -215 314 -410 144 -173
155 -182 192 -149 8 8 18 14 21 14 4 0 42 22 86 49 134 83 345 186 404 196 71
13 2 -44 -182 -149 -131 -75 -144 -84 -153 -110 -10 -24 12 -58 77 -119 84
-80 194 -143 281 -162 17 -4 37 -9 45 -12 8 -3 24 -8 35 -10 11 -2 43 -7 70
-13 28 -5 77 -11 110 -14 226 -20 226 -20 300 -36 85 -17 172 -61 227 -115
119 -115 211 -293 236 -455 14 -90 8 -275 -12 -370 -71 -345 -324 -672 -640
-825 -86 -42 -187 -72 -231 -70 -111 6 -166 80 -170 228 -1 56 7 143 18 192 7
32 20 128 22 158 1 33 -6 34 -25 5 -166 -258 -251 -496 -246 -694 1 -75 6 -99
29 -147 28 -57 80 -111 101 -104 6 2 24 27 40 56 15 29 34 55 42 58 22 8 58
-21 118 -96 65 -81 105 -102 186 -95 135 11 372 89 575 189 131 64 289 158
350 207 204 165 274 233 370 362 142 190 178 356 178 801 0 250 -13 413 -48
575 -2 14 -7 34 -9 46 -2 11 -18 63 -36 115 -84 253 -228 423 -461 548 -93 50
-179 112 -179 130 0 21 96 9 160 -21 30 -14 71 -39 90 -57 51 -46 84 -63 99
-48 20 20 12 52 -28 114 -58 90 -166 196 -346 341 -11 8 -60 42 -109 74 -215
139 -416 186 -796 185 -107 0 -225 -4 -262 -8z m1004 -517 c38 -38 -224 -49
-292 -12 -12 7 -10 11 10 19 34 15 266 9 282 -7z"/>
<path d="M3385 5735 c-79 -21 -144 -52 -214 -103 -135 -96 -301 -293 -341
-405 -12 -35 -54 -53 -135 -60 -83 -7 -112 -16 -170 -50 -148 -87 -276 -251
-335 -426 -30 -91 -29 -217 2 -280 27 -54 57 -71 134 -77 73 -6 148 -35 236
-93 195 -127 313 -295 251 -356 -59 -59 -329 82 -371 194 -7 17 -17 45 -23 61
-6 17 -27 44 -46 61 -28 24 -41 29 -62 24 -62 -15 -82 -87 -76 -275 4 -150 6
-163 42 -305 35 -144 85 -251 172 -373 42 -59 143 -207 225 -330 82 -122 151
-220 154 -217 6 6 7 34 17 395 4 135 8 261 10 280 1 19 3 53 4 74 0 22 3 37 6
34 8 -8 20 -140 30 -348 9 -167 14 -269 21 -360 3 -47 7 -110 9 -140 5 -84 16
-232 20 -260 2 -14 6 -54 10 -90 8 -83 33 -185 55 -231 27 -52 70 -90 163
-141 96 -54 129 -84 107 -98 -8 -6 -22 -10 -31 -10 -39 0 -61 -59 -39 -101 23
-42 -11 -16 -77 58 -37 43 -92 102 -121 130 -73 73 -94 70 -94 -10 0 -81 62
-198 205 -390 118 -156 186 -271 241 -404 40 -95 81 -149 123 -159 31 -8 100
19 140 55 35 33 133 155 133 167 0 4 6 15 14 23 20 23 142 265 203 401 83 189
115 307 90 337 -22 29 -75 -1 -213 -124 -115 -101 -168 -126 -171 -81 -4 54
80 154 188 224 95 61 122 104 152 244 30 140 53 392 72 785 3 66 7 147 10 180
2 33 7 110 11 170 3 61 8 117 10 125 1 8 3 24 3 34 1 11 3 17 6 14 6 -6 13
-134 20 -403 7 -214 12 -358 14 -385 1 -8 11 2 24 22 12 20 45 69 72 108 28
40 55 79 60 88 30 51 132 201 204 302 105 147 155 249 191 394 38 152 44 196
45 351 0 103 -4 140 -19 178 -40 105 -129 77 -177 -54 -28 -75 -92 -142 -186
-191 -81 -43 -166 -58 -197 -36 -66 50 62 235 247 356 92 60 160 87 241 96 77
8 107 24 129 68 23 47 27 68 27 158 1 112 -45 233 -133 350 -115 154 -252 244
-387 256 -106 9 -138 28 -145 85 -11 84 -137 230 -295 340 -196 137 -346 182
-485 144z m-78 -3438 c27 -14 74 -46 103 -71 73 -63 107 -63 179 -1 65 56 150
96 211 99 105 6 98 -16 -25 -75 -44 -21 -97 -54 -118 -74 -43 -40 -76 -105
-77 -147 0 -62 -34 -107 -79 -108 -39 0 -61 27 -61 77 0 24 -7 57 -15 72 -21
41 -121 127 -183 159 -73 37 -118 75 -107 91 12 21 113 8 172 -22z"/>
</g>
</svg>
