<svg xmlns="http://www.w3.org/2000/svg" fill="none"><g clip-path="url(#a)"><path fill="#F7931A" d="M24 24H0V0h24v24Z"/><path fill="#fff" d="M17.91 10.09c.266-1.783-1.092-2.742-2.949-3.381l.603-2.416-1.47-.367-.587 2.353A60.711 60.711 0 0 0 12.328 6l.59-2.368-1.469-.366-.603 2.415c-.32-.073-.634-.145-.939-.22l.002-.008-2.028-.507-.392 1.571s1.092.25 1.068.266c.596.148.704.543.686.855l-.686 2.753c.04.01.094.025.153.049l-.156-.039-.962 3.856c-.072.181-.257.453-.674.35.015.021-1.069-.267-1.069-.267l-.73 1.684 1.914.477c.356.089.705.182 1.049.27l-.609 2.444 1.47.367.602-2.418c.401.109.79.21 1.172.304l-.6 2.406 1.47.367.609-2.44c2.508.475 4.394.284 5.188-1.985.64-1.826-.032-2.88-1.352-3.566.961-.222 1.685-.854 1.878-2.16Zm-3.36 4.713c-.455 1.826-3.53.84-4.527.592l.807-3.238c.997.249 4.194.741 3.72 2.646Zm.454-4.739c-.415 1.662-2.974.818-3.804.61l.732-2.936c.83.207 3.504.594 3.072 2.326Z"/></g><defs><clipPath id="a"><rect width="23.997" height="24" fill="#fff" rx="6"/></clipPath></defs></svg>
