<svg width="20" height="20" viewBox="0 0 20 20" fill="none" xmlns="http://www.w3.org/2000/svg">
<path d="M9.98942 14.4375C10.9964 14.4375 11.8401 14.0972 12.5207 13.4167C13.2012 12.7361 13.5415 11.8924 13.5415 10.8854C13.5415 9.87847 13.2012 9.03819 12.5207 8.36458C11.8401 7.69097 10.9964 7.35417 9.98942 7.35417C8.98248 7.35417 8.1422 7.69097 7.46859 8.36458C6.79498 9.03819 6.45817 9.87847 6.45817 10.8854C6.45817 11.8924 6.79498 12.7361 7.46859 13.4167C8.1422 14.0972 8.98248 14.4375 9.98942 14.4375ZM9.98942 13.1875C9.3297 13.1875 8.78456 12.9688 8.354 12.5312C7.92345 12.0938 7.70817 11.5451 7.70817 10.8854C7.70817 10.2257 7.92345 9.68056 8.354 9.25C8.78456 8.81944 9.3297 8.60417 9.98942 8.60417C10.6491 8.60417 11.1978 8.81944 11.6353 9.25C12.0728 9.68056 12.2915 10.2257 12.2915 10.8854C12.2915 11.5451 12.0728 12.0938 11.6353 12.5312C11.1978 12.9688 10.6491 13.1875 9.98942 13.1875ZM2.9165 17.5C2.58317 17.5 2.2915 17.375 2.0415 17.125C1.7915 16.875 1.6665 16.5833 1.6665 16.25V5.5625C1.6665 5.24306 1.7915 4.95486 2.0415 4.69792C2.2915 4.44097 2.58317 4.3125 2.9165 4.3125H5.979L7.49984 2.5H12.4998L14.0207 4.3125H17.0832C17.4026 4.3125 17.6908 4.44097 17.9478 4.69792C18.2047 4.95486 18.3332 5.24306 18.3332 5.5625V16.25C18.3332 16.5833 18.2047 16.875 17.9478 17.125C17.6908 17.375 17.4026 17.5 17.0832 17.5H2.9165ZM2.9165 16.25H17.0832V5.5625H13.4373L11.9165 3.75H8.08317L6.56234 5.5625H2.9165V16.25Z" fill="#E8EAED"/>
</svg>
