<svg width="22" height="22" viewBox="0 0 22 22" fill="none" xmlns="http://www.w3.org/2000/svg">
<g clip-path="url(#clip0_1041_1990)">
<path d="M16.445 16.445C14.8781 17.6394 12.97 18.3011 11 18.3333C4.58335 18.3333 0.916687 11 0.916687 11C2.05692 8.87507 3.63839 7.01855 5.55502 5.555M9.07502 3.88666C9.70599 3.73897 10.352 3.66514 11 3.66666C17.4167 3.66666 21.0834 11 21.0834 11C20.5269 12.041 19.8633 13.021 19.1034 13.9242M12.9434 12.9433C12.6916 13.2135 12.388 13.4302 12.0507 13.5805C11.7133 13.7308 11.3492 13.8117 10.9799 13.8182C10.6107 13.8247 10.2439 13.7568 9.9015 13.6184C9.55907 13.4801 9.24802 13.2743 8.98688 13.0131C8.72574 12.752 8.51988 12.4409 8.38157 12.0985C8.24326 11.7561 8.17534 11.3893 8.18185 11.0201C8.18837 10.6508 8.26919 10.2867 8.41949 9.94936C8.56979 9.61203 8.7865 9.30843 9.05669 9.05666M0.916687 0.916664L21.0834 21.0833" stroke="#32466D" stroke-width="2" stroke-linecap="round" stroke-linejoin="round"/>
</g>
<defs>
<clipPath id="clip0_1041_1990">
<rect width="22" height="22" fill="white"/>
</clipPath>
</defs>
</svg>
