<svg width="28" height="28" viewBox="0 0 28 28" fill="none" xmlns="http://www.w3.org/2000/svg">
<path d="M4.08337 23.3333C3.61671 23.3333 3.20837 23.1535 2.85837 22.7937C2.50837 22.434 2.33337 22.0305 2.33337 21.5833V6.41666C2.33337 5.96943 2.50837 5.56596 2.85837 5.20624C3.20837 4.84652 3.61671 4.66666 4.08337 4.66666H12.2792L14.0292 6.41666H23.9167C24.3639 6.41666 24.7674 6.59652 25.1271 6.95624C25.4868 7.31596 25.6667 7.71943 25.6667 8.16666V21.5833C25.6667 22.0305 25.4868 22.434 25.1271 22.7937C24.7674 23.1535 24.3639 23.3333 23.9167 23.3333H4.08337ZM4.08337 21.5833H23.9167V8.16666H13.3L11.55 6.41666H4.08337V21.5833Z" fill="#E8EAED"/>
</svg>
