<svg width="20" height="20" viewBox="0 0 20 20" fill="none" xmlns="http://www.w3.org/2000/svg">
<path d="M10.0056 18.3333C8.85642 18.3333 7.77656 18.1146 6.766 17.6771C5.75531 17.2396 4.87149 16.6424 4.11454 15.8854C3.3576 15.1285 2.76038 14.2442 2.32288 13.2325C1.88538 12.2208 1.66663 11.1399 1.66663 9.98958C1.66663 8.83931 1.88538 7.75833 2.32288 6.74667C2.76038 5.735 3.3576 4.85417 4.11454 4.10417C4.87149 3.35417 5.75579 2.76042 6.76746 2.32292C7.77913 1.88542 8.8601 1.66667 10.0104 1.66667C11.1607 1.66667 12.2416 1.88542 13.2533 2.32292C14.265 2.76042 15.1458 3.35417 15.8958 4.10417C16.6458 4.85417 17.2395 5.73611 17.677 6.75C18.1145 7.76389 18.3333 8.84535 18.3333 9.99438C18.3333 11.1435 18.1145 12.2234 17.677 13.234C17.2395 14.2447 16.6458 15.1272 15.8958 15.8817C15.1458 16.636 14.2638 17.2332 13.25 17.6733C12.2361 18.1133 11.1546 18.3333 10.0056 18.3333ZM9.99996 17.0833C11.9775 17.0833 13.6524 16.3924 15.0247 15.0104C16.3971 13.6285 17.0833 11.9583 17.0833 10V9.72917C17 10.0903 16.8096 10.3924 16.5122 10.6354C16.215 10.8785 15.8637 11 15.4583 11H13.7916C13.3333 11 12.9409 10.8368 12.6145 10.5104C12.2882 10.184 12.125 9.79167 12.125 9.33333V8.5H8.79163V6.83333C8.79163 6.375 8.95482 5.98264 9.28121 5.65625C9.6076 5.32986 9.99996 5.16667 10.4583 5.16667H11.2916V4.70833C11.2916 4.48611 11.3854 4.20833 11.5729 3.875C11.7604 3.54167 11.9722 3.34028 12.2083 3.27083C11.8611 3.15972 11.5044 3.07292 11.1383 3.01042C10.7723 2.94792 10.3929 2.91667 9.99996 2.91667C8.04163 2.91667 6.37149 3.60285 4.98954 4.97521C3.6076 6.34757 2.91663 8.0225 2.91663 10H6.04163C6.95829 10 7.74301 10.3264 8.39579 10.9792C9.04857 11.6319 9.37496 12.4167 9.37496 13.3333V14.1667H6.87496V16.3542C7.34718 16.5903 7.8451 16.7708 8.36871 16.8958C8.89232 17.0208 9.43607 17.0833 9.99996 17.0833Z" fill="#EFF4FF"/>
</svg>
