<svg width="248" height="171" viewBox="0 0 248 171" fill="none" xmlns="http://www.w3.org/2000/svg">
<g filter="url(#filter0_i_43_559)">
<path d="M127.48 39.9573C108.228 62.4906 92.1852 45.0158 62.3904 37.658C12.6335 25.3705 1.00008 71.331 1 107.557C0.999918 143.783 29.2519 168.719 53.4932 168.719C91.1856 168.719 98.7817 138.636 118.17 138.636C142.517 138.636 173.777 177.456 211.823 168.719C247.118 160.613 259.19 60.9243 232.908 23.4022C197.154 -27.6426 146.732 17.424 127.48 39.9573Z" fill="#1B273E"/>
</g>
<mask id="mask0_43_559" style="mask-type:alpha" maskUnits="userSpaceOnUse" x="0" y="-1" width="248" height="172">
<path d="M127.48 39.9573C108.228 62.4906 92.1852 45.0158 62.3904 37.658C12.6335 25.3705 1.00008 71.331 1 107.557C0.999918 143.783 29.2519 168.719 53.4932 168.719C91.1856 168.719 98.7817 138.636 118.17 138.636C142.516 138.636 173.777 177.456 211.823 168.719C247.118 160.613 259.19 60.9243 232.908 23.4022C197.154 -27.6426 146.732 17.424 127.48 39.9573Z" fill="#F8F8F8" stroke="black"/>
</mask>
<g mask="url(#mask0_43_559)">
<path d="M244.311 155.008L247.323 156.238L70.8468 205.214C18.7675 199.683 -80.777 182.143 -62.3198 156.238C-39.2484 123.857 -13.3437 104.429 47.3707 104.429C120.44 104.429 130.182 108.406 244.311 155.008Z" fill="#32466D"/>
<path d="M235.412 102C264.555 102 288.031 108.476 312.721 139.643L233.793 176.071C181.713 170.54 107.669 176.476 126.126 150.571C149.198 118.19 174.698 102 235.412 102Z" fill="#32466D" stroke="#CCDCFF" stroke-width="4.34928"/>
<path d="M38.5425 149.121V148.621H38.0425H30.9807C24.9919 148.621 20.1189 143.748 20.1189 137.759V123.941C20.1189 120.486 22.9125 117.685 26.3749 117.685C29.8239 117.685 32.6308 120.492 32.6308 123.941V135.609V136.109H33.1308H38.0425H38.5425V135.609V107.821C38.5425 103.084 42.3752 99.262 47.1013 99.262C51.8203 99.262 55.6602 103.102 55.6602 107.821V124.094V124.594H56.1602H61.0719H61.5719V124.094V117.032C61.5719 113.577 64.3653 110.776 67.8277 110.776C71.2768 110.776 74.0837 113.583 74.0837 117.032V126.244C74.0837 132.233 69.2107 137.106 63.2219 137.106H56.1602H55.6602V137.606V167.85C55.6602 168.761 54.9214 169.5 54.0101 169.5H40.1925C39.2813 169.5 38.5425 168.761 38.5425 167.85V149.121Z" fill="#28334D" stroke="black"/>
<path fill-rule="evenodd" clip-rule="evenodd" d="M194.779 170.349C196.583 170.992 198.525 171.341 200.547 171.341C202.568 171.341 204.51 170.992 206.314 170.349C206.321 170.35 206.328 170.35 206.335 170.35L210.862 170.359H210.863C211.191 170.359 211.457 170.094 211.458 169.766C211.458 169.438 211.193 169.171 210.865 169.17L208.923 169.166C211.135 167.932 213.048 166.224 214.525 164.182L218.189 161.85C218.466 161.674 218.548 161.307 218.372 161.03C218.196 160.753 217.829 160.67 217.551 160.847L215.932 161.877C216.911 159.948 217.538 157.811 217.727 155.551C217.731 155.542 217.735 155.533 217.739 155.524L219.522 151.363C219.652 151.061 219.512 150.712 219.21 150.582C218.911 150.453 218.558 150.593 218.43 150.894L217.719 152.551C217.522 150.306 216.898 148.163 215.9 146.217C215.9 146.191 215.898 146.165 215.894 146.139L215.253 141.657C215.207 141.332 214.906 141.106 214.58 141.153C214.255 141.199 214.029 141.5 214.076 141.826L214.35 143.744C213.039 142.003 211.381 140.498 209.431 139.324C209.151 139.154 208.784 139.245 208.615 139.526C208.446 139.807 208.536 140.172 208.818 140.342C210.758 141.511 212.386 143.03 213.644 144.794L211.67 143.874C211.37 143.736 211.019 143.865 210.88 144.162C210.742 144.46 210.871 144.814 211.168 144.952L214.774 146.632C215.838 148.66 216.463 150.924 216.579 153.298L215.309 151.393C215.127 151.12 214.758 151.046 214.485 151.229C214.211 151.411 214.137 151.78 214.32 152.053L216.546 155.393C216.312 158.321 215.289 161.03 213.689 163.306C213.593 163.38 213.524 163.479 213.488 163.587C212.668 164.702 211.709 165.707 210.636 166.577C212.503 164.315 213.626 161.417 213.626 158.263C213.626 155.729 212.915 153.326 211.621 151.278L211.84 148.803C211.869 148.476 211.627 148.187 211.3 148.159C210.966 148.134 210.684 148.372 210.655 148.699L210.556 149.827C209.643 148.75 208.545 147.81 207.286 147.052C207.005 146.883 206.64 146.973 206.471 147.254C206.301 147.536 206.392 147.901 206.673 148.07C209.465 149.752 211.386 152.413 212.113 155.479L211.282 155.147C210.98 155.026 210.632 155.173 210.51 155.478C210.388 155.783 210.536 156.129 210.841 156.251L212.356 156.857C212.409 157.319 212.437 157.788 212.437 158.263C212.437 159.605 212.213 160.896 211.801 162.101L211.209 161.434C210.991 161.189 210.615 161.167 210.37 161.385C210.124 161.603 210.102 161.979 210.321 162.225L211.302 163.329C210.471 165.087 209.221 166.61 207.681 167.769C208.8 166.278 209.464 164.427 209.464 162.424C209.464 161.124 209.184 159.887 208.682 158.772L208.686 158.76L209.244 157.199C209.354 156.89 209.193 156.55 208.884 156.439C208.575 156.329 208.234 156.49 208.124 156.799L207.91 157.399C206.302 155.05 203.602 153.507 200.547 153.507C200.218 153.507 199.952 153.773 199.952 154.101C199.952 154.429 200.218 154.696 200.547 154.696C200.847 154.696 201.144 154.713 201.435 154.746L200.175 156.504C199.984 156.771 200.045 157.143 200.312 157.334C200.417 157.409 200.538 157.445 200.658 157.445C200.843 157.445 201.025 157.359 201.141 157.197L202.713 155.004C205.923 155.943 208.275 158.914 208.275 162.424C208.275 164.006 207.797 165.479 206.979 166.705L206.462 165.952C206.277 165.681 205.907 165.612 205.636 165.798C205.364 165.984 205.296 166.353 205.481 166.624L206.206 167.682C205.486 168.456 204.61 169.083 203.627 169.512C201.515 168.095 199.957 166.287 198.961 164.107L199.835 162.926C200.03 162.663 199.975 162.291 199.712 162.095C199.447 161.9 199.075 161.955 198.88 162.219L198.447 162.803C197.952 161.322 197.685 159.692 197.649 157.916C197.57 153.98 198.716 150.769 198.728 150.737C198.839 150.429 198.68 150.087 198.372 149.975C198.064 149.865 197.723 150.023 197.61 150.331C197.594 150.376 197.052 151.912 196.726 154.188L195.521 152.602C195.323 152.341 194.95 152.29 194.688 152.489C194.427 152.687 194.376 153.06 194.575 153.321L196.457 155.798C196.483 155.832 196.512 155.863 196.543 155.89C196.309 159.159 196.699 163.335 199.222 166.891L198.949 166.943C198.627 167.004 198.415 167.315 198.476 167.638C198.531 167.923 198.78 168.121 199.06 168.121C199.096 168.121 199.134 168.118 199.172 168.111L200.05 167.944C200.67 168.657 201.39 169.337 202.223 169.969C201.697 170.086 201.151 170.149 200.591 170.152C200.576 170.152 200.561 170.152 200.547 170.152M194.779 170.349C194.772 170.35 194.765 170.35 194.757 170.35L190.23 170.359H190.229C189.901 170.359 189.635 170.094 189.635 169.766C189.634 169.438 189.899 169.171 190.228 169.17L192.17 169.166C189.959 167.932 188.046 166.225 186.569 164.183L182.903 161.85C182.626 161.674 182.544 161.307 182.721 161.03C182.897 160.752 183.264 160.671 183.542 160.847L185.162 161.878C184.183 159.949 183.556 157.812 183.367 155.552C183.363 155.543 183.358 155.534 183.354 155.524L181.571 151.363C181.442 151.061 181.581 150.712 181.883 150.582C182.182 150.453 182.534 150.592 182.664 150.894L183.374 152.553C183.571 150.326 184.19 148.19 185.193 146.237C185.192 146.205 185.194 146.172 185.199 146.139L185.84 141.657C185.886 141.333 186.188 141.109 186.513 141.153C186.838 141.199 187.064 141.5 187.017 141.826L186.739 143.771C187.263 143.073 187.845 142.41 188.481 141.787C188.716 141.557 189.092 141.561 189.322 141.795C189.552 142.03 189.548 142.406 189.314 142.636C188.631 143.305 188.016 144.023 187.471 144.783L189.423 143.874C189.722 143.736 190.075 143.865 190.213 144.162C190.351 144.46 190.222 144.814 189.925 144.952L186.332 146.625C185.253 148.67 184.63 150.935 184.515 153.297L185.784 151.393C185.966 151.12 186.334 151.046 186.608 151.229C186.882 151.411 186.956 151.78 186.773 152.053L184.547 155.393C184.781 158.321 185.805 161.031 187.405 163.308C187.5 163.381 187.567 163.478 187.604 163.585C188.424 164.7 189.384 165.707 190.458 166.577C188.931 164.727 187.901 162.451 187.577 159.957C187.573 159.935 187.57 159.912 187.569 159.888C187.502 159.356 187.468 158.813 187.468 158.263C187.468 156.343 187.893 154.503 188.657 152.841V149.345C188.657 149.017 188.923 148.751 189.251 148.751C189.58 148.751 189.846 149.017 189.846 149.345V150.772C191.865 147.895 195.013 145.841 198.679 145.316C199.004 145.267 199.306 145.496 199.352 145.821C199.398 146.146 199.173 146.447 198.848 146.493C193.047 147.323 188.671 152.368 188.657 158.235L189.376 157.305C189.575 157.045 189.949 156.996 190.209 157.198C190.469 157.398 190.517 157.772 190.316 158.032L188.785 160.013C189.254 163.172 190.969 165.93 193.413 167.769C192.294 166.278 191.63 164.427 191.63 162.424C191.63 161.521 191.764 160.635 192.025 159.789L191.458 159.191C191.232 158.953 191.242 158.577 191.481 158.351C191.72 158.126 192.096 158.135 192.321 158.374L192.504 158.567C192.71 158.138 192.952 157.724 193.228 157.328C193.416 157.058 193.786 156.992 194.056 157.18C194.326 157.368 194.391 157.739 194.204 158.008C193.298 159.307 192.819 160.834 192.819 162.424C192.819 163.67 193.115 164.848 193.641 165.892L193.979 165.446C194.178 165.184 194.549 165.132 194.812 165.331C195.074 165.53 195.125 165.903 194.927 166.164L194.308 166.98C195.707 168.891 197.962 170.138 200.503 170.152" fill="#0052FE"/>
<path d="M194.779 170.349L194.771 170.099L194.77 170.099L194.779 170.349ZM206.314 170.349L206.323 170.1L206.275 170.098L206.23 170.114L206.314 170.349ZM206.335 170.35L206.336 170.1H206.335L206.335 170.35ZM210.862 170.359L210.862 170.609H210.862V170.359ZM211.458 169.766L211.208 169.766V169.766L211.458 169.766ZM210.865 169.17L210.864 169.42H210.864L210.865 169.17ZM208.923 169.166L208.801 168.948L207.966 169.414L208.923 169.416L208.923 169.166ZM214.525 164.182L214.391 163.971L214.351 163.997L214.323 164.035L214.525 164.182ZM218.189 161.85L218.323 162.061L218.323 162.061L218.189 161.85ZM218.372 161.03L218.16 161.164L218.161 161.164L218.372 161.03ZM217.551 160.847L217.417 160.636L217.416 160.636L217.551 160.847ZM215.932 161.877L215.709 161.764L215.295 162.578L216.066 162.088L215.932 161.877ZM217.727 155.551L217.502 155.441L217.481 155.483L217.477 155.53L217.727 155.551ZM217.739 155.524L217.509 155.426L217.509 155.426L217.739 155.524ZM219.522 151.363L219.292 151.264L219.292 151.264L219.522 151.363ZM219.21 150.582L219.111 150.812L219.112 150.812L219.21 150.582ZM218.43 150.894L218.659 150.993L218.659 150.993L218.43 150.894ZM217.719 152.551L217.47 152.573L217.949 152.65L217.719 152.551ZM215.9 146.217L215.65 146.219L215.651 146.279L215.678 146.331L215.9 146.217ZM215.894 146.139L216.142 146.104L216.142 146.104L215.894 146.139ZM215.253 141.657L215.006 141.693V141.693L215.253 141.657ZM214.58 141.153L214.616 141.4L214.616 141.4L214.58 141.153ZM214.076 141.826L213.828 141.861L213.828 141.861L214.076 141.826ZM214.35 143.744L214.151 143.894L214.598 143.709L214.35 143.744ZM209.431 139.324L209.302 139.538L209.302 139.538L209.431 139.324ZM208.615 139.526L208.829 139.655L208.83 139.655L208.615 139.526ZM208.818 140.342L208.947 140.128L208.947 140.128L208.818 140.342ZM213.644 144.794L213.539 145.02L214.398 145.421L213.848 144.648L213.644 144.794ZM211.67 143.874L211.776 143.648L211.775 143.647L211.67 143.874ZM210.88 144.162L211.107 144.268L211.107 144.268L210.88 144.162ZM211.168 144.952L211.063 145.179L211.063 145.179L211.168 144.952ZM214.774 146.632L214.996 146.516L214.956 146.441L214.88 146.405L214.774 146.632ZM216.579 153.298L216.37 153.436L216.872 154.189L216.828 153.286L216.579 153.298ZM215.309 151.393L215.101 151.532L215.101 151.532L215.309 151.393ZM214.485 151.229L214.623 151.437L214.623 151.437L214.485 151.229ZM214.32 152.053L214.528 151.914L214.528 151.914L214.32 152.053ZM216.546 155.393L216.796 155.413L216.803 155.327L216.755 155.254L216.546 155.393ZM213.689 163.306L213.841 163.505L213.872 163.482L213.894 163.45L213.689 163.306ZM213.488 163.587L213.689 163.735L213.712 163.704L213.724 163.668L213.488 163.587ZM210.636 166.577L210.443 166.417L210.793 166.771L210.636 166.577ZM211.621 151.278L211.372 151.256L211.365 151.34L211.41 151.412L211.621 151.278ZM211.84 148.803L211.591 148.781L211.591 148.781L211.84 148.803ZM211.3 148.159L211.322 147.909L211.318 147.909L211.3 148.159ZM210.655 148.699L210.406 148.676L210.406 148.677L210.655 148.699ZM210.556 149.827L210.365 149.988L210.752 150.445L210.805 149.849L210.556 149.827ZM207.286 147.052L207.416 146.838L207.415 146.838L207.286 147.052ZM206.471 147.254L206.685 147.383L206.685 147.383L206.471 147.254ZM206.673 148.07L206.802 147.856L206.802 147.856L206.673 148.07ZM212.113 155.479L212.02 155.711L212.468 155.89L212.357 155.422L212.113 155.479ZM211.282 155.147L211.189 155.379L211.189 155.379L211.282 155.147ZM210.51 155.478L210.742 155.571L210.51 155.478ZM210.841 156.251L210.748 156.483L210.748 156.483L210.841 156.251ZM212.356 156.857L212.604 156.828L212.587 156.68L212.448 156.625L212.356 156.857ZM211.801 162.101L211.614 162.267L211.899 162.587L212.038 162.182L211.801 162.101ZM211.209 161.434L211.396 161.268L211.396 161.268L211.209 161.434ZM210.37 161.385L210.204 161.198L210.204 161.198L210.37 161.385ZM210.321 162.225L210.508 162.059L210.508 162.059L210.321 162.225ZM211.302 163.329L211.528 163.436L211.599 163.286L211.489 163.163L211.302 163.329ZM207.681 167.769L207.481 167.618L207.831 167.968L207.681 167.769ZM208.682 158.772L208.447 158.686L208.412 158.781L208.454 158.875L208.682 158.772ZM208.686 158.76L208.921 158.846L208.922 158.844L208.686 158.76ZM209.244 157.199L209.008 157.115L209.008 157.115L209.244 157.199ZM208.884 156.439L208.799 156.675L208.8 156.675L208.884 156.439ZM208.124 156.799L208.36 156.883L208.36 156.883L208.124 156.799ZM207.91 157.399L207.704 157.54L207.981 157.944L208.146 157.483L207.91 157.399ZM201.435 154.746L201.638 154.892L201.886 154.547L201.464 154.498L201.435 154.746ZM200.175 156.504L200.378 156.65L200.378 156.65L200.175 156.504ZM200.312 157.334L200.166 157.537L200.166 157.537L200.312 157.334ZM201.141 157.197L200.938 157.051L200.938 157.051L201.141 157.197ZM202.713 155.004L202.783 154.765L202.613 154.715L202.509 154.859L202.713 155.004ZM206.979 166.705L206.772 166.846L206.981 167.151L207.186 166.844L206.979 166.705ZM206.462 165.952L206.668 165.811L206.668 165.811L206.462 165.952ZM205.636 165.798L205.777 166.004L205.777 166.004L205.636 165.798ZM205.481 166.624L205.275 166.765L205.275 166.766L205.481 166.624ZM206.206 167.682L206.389 167.852L206.526 167.705L206.412 167.54L206.206 167.682ZM203.627 169.512L203.488 169.719L203.602 169.796L203.727 169.741L203.627 169.512ZM198.961 164.107L198.76 163.958L198.672 164.076L198.733 164.211L198.961 164.107ZM199.835 162.926L200.036 163.075L200.036 163.075L199.835 162.926ZM199.712 162.095L199.861 161.894L199.86 161.893L199.712 162.095ZM198.88 162.219L198.679 162.07L198.679 162.07L198.88 162.219ZM198.447 162.803L198.21 162.882L198.363 163.337L198.648 162.951L198.447 162.803ZM197.649 157.916L197.899 157.911V157.911L197.649 157.916ZM198.728 150.737L198.963 150.822L198.963 150.822L198.728 150.737ZM198.372 149.975L198.457 149.74L198.456 149.74L198.372 149.975ZM197.61 150.331L197.845 150.417L197.845 150.416L197.61 150.331ZM196.726 154.188L196.527 154.339L196.889 154.815L196.974 154.223L196.726 154.188ZM195.521 152.602L195.322 152.753L195.322 152.753L195.521 152.602ZM194.688 152.489L194.537 152.29L194.537 152.29L194.688 152.489ZM194.575 153.321L194.376 153.473L194.376 153.473L194.575 153.321ZM196.457 155.798L196.657 155.647L196.656 155.647L196.457 155.798ZM196.543 155.89L196.792 155.907L196.801 155.782L196.706 155.7L196.543 155.89ZM199.222 166.891L199.269 167.136L199.651 167.063L199.426 166.746L199.222 166.891ZM198.949 166.943L198.902 166.697L198.902 166.697L198.949 166.943ZM198.476 167.638L198.231 167.685L198.231 167.685L198.476 167.638ZM199.172 168.111L199.217 168.357L199.219 168.356L199.172 168.111ZM200.05 167.944L200.238 167.78L200.144 167.671L200.003 167.698L200.05 167.944ZM202.223 169.969L202.277 170.213L202.804 170.096L202.374 169.77L202.223 169.969ZM200.591 170.152L200.592 170.402L200.592 170.402L200.591 170.152ZM200.547 170.152V169.902L200.538 169.902L200.547 170.152ZM194.757 170.35L194.757 170.1H194.757L194.757 170.35ZM190.23 170.359V170.609H190.231L190.23 170.359ZM189.635 169.766L189.885 169.766V169.766L189.635 169.766ZM190.228 169.17L190.228 169.42H190.228L190.228 169.17ZM192.17 169.166L192.171 169.416L193.127 169.414L192.292 168.948L192.17 169.166ZM186.569 164.183L186.772 164.036L186.744 163.998L186.703 163.972L186.569 164.183ZM182.903 161.85L183.037 161.639L183.037 161.639L182.903 161.85ZM182.721 161.03L182.932 161.164L182.932 161.164L182.721 161.03ZM183.542 160.847L183.676 160.636L183.676 160.636L183.542 160.847ZM185.162 161.878L185.028 162.089L185.799 162.579L185.385 161.765L185.162 161.878ZM183.367 155.552L183.616 155.531L183.612 155.484L183.592 155.442L183.367 155.552ZM183.354 155.524L183.584 155.426L183.584 155.426L183.354 155.524ZM181.571 151.363L181.801 151.265L181.801 151.264L181.571 151.363ZM181.883 150.582L181.982 150.812L181.983 150.812L181.883 150.582ZM182.664 150.894L182.434 150.993L182.434 150.993L182.664 150.894ZM183.374 152.553L183.145 152.651L183.623 152.575L183.374 152.553ZM185.193 146.237L185.415 146.351L185.444 146.295L185.443 146.231L185.193 146.237ZM185.199 146.139L184.951 146.104L184.951 146.104L185.199 146.139ZM185.84 141.657L185.592 141.622L185.592 141.622L185.84 141.657ZM186.513 141.153L186.548 140.905L186.546 140.905L186.513 141.153ZM187.017 141.826L187.265 141.861L187.265 141.861L187.017 141.826ZM186.739 143.771L186.491 143.736L186.939 143.921L186.739 143.771ZM188.481 141.787L188.306 141.608L188.306 141.608L188.481 141.787ZM189.322 141.795L189.143 141.97L189.143 141.97L189.322 141.795ZM189.314 142.636L189.488 142.815L189.489 142.815L189.314 142.636ZM187.471 144.783L187.268 144.638L186.713 145.412L187.577 145.01L187.471 144.783ZM189.423 143.874L189.318 143.647L189.317 143.648L189.423 143.874ZM190.213 144.162L189.986 144.267L189.986 144.268L190.213 144.162ZM189.925 144.952L190.03 145.179L190.03 145.179L189.925 144.952ZM186.332 146.625L186.227 146.399L186.15 146.434L186.111 146.509L186.332 146.625ZM184.515 153.297L184.265 153.285L184.221 154.189L184.723 153.436L184.515 153.297ZM185.784 151.393L185.992 151.532L185.992 151.532L185.784 151.393ZM186.608 151.229L186.747 151.02L186.747 151.02L186.608 151.229ZM186.773 152.053L186.565 151.914L186.565 151.914L186.773 152.053ZM184.547 155.393L184.339 155.254L184.291 155.326L184.298 155.413L184.547 155.393ZM187.405 163.308L187.201 163.452L187.223 163.483L187.253 163.506L187.405 163.308ZM187.604 163.585L187.368 163.666L187.38 163.702L187.403 163.733L187.604 163.585ZM190.458 166.577L190.301 166.771L190.651 166.418L190.458 166.577ZM187.577 159.957L187.826 159.925L187.823 159.912L187.577 159.957ZM187.569 159.888L187.818 159.871L187.817 159.857L187.569 159.888ZM188.657 152.841L188.884 152.945L188.907 152.896V152.841H188.657ZM189.846 150.772H189.596V151.563L190.05 150.916L189.846 150.772ZM198.679 145.316L198.715 145.564L198.716 145.564L198.679 145.316ZM199.352 145.821L199.6 145.785L199.6 145.785L199.352 145.821ZM198.848 146.493L198.812 146.246L198.812 146.246L198.848 146.493ZM188.657 158.235L188.407 158.234L188.405 158.969L188.855 158.387L188.657 158.235ZM189.376 157.305L189.573 157.458L189.574 157.457L189.376 157.305ZM190.209 157.198L190.056 157.395L190.057 157.395L190.209 157.198ZM190.316 158.032L190.118 157.879L190.118 157.879L190.316 158.032ZM188.785 160.013L188.588 159.86L188.523 159.944L188.538 160.049L188.785 160.013ZM193.413 167.769L193.263 167.969L193.613 167.619L193.413 167.769ZM192.025 159.789L192.263 159.863L192.307 159.723L192.206 159.617L192.025 159.789ZM191.458 159.191L191.64 159.02L191.64 159.02L191.458 159.191ZM191.481 158.351L191.309 158.169L191.309 158.17L191.481 158.351ZM192.321 158.374L192.139 158.546L192.14 158.546L192.321 158.374ZM192.504 158.567L192.322 158.739L192.572 159.002L192.729 158.675L192.504 158.567ZM193.228 157.328L193.433 157.471L193.434 157.471L193.228 157.328ZM194.056 157.18L194.199 156.975L194.199 156.975L194.056 157.18ZM194.204 158.008L194.409 158.151L194.409 158.151L194.204 158.008ZM193.641 165.892L193.418 166.004L193.598 166.362L193.84 166.043L193.641 165.892ZM193.979 165.446L193.78 165.294L193.78 165.295L193.979 165.446ZM194.812 165.331L194.964 165.132L194.963 165.132L194.812 165.331ZM194.927 166.164L194.728 166.013L194.728 166.013L194.927 166.164ZM194.308 166.98L194.109 166.829L193.996 166.978L194.106 167.128L194.308 166.98ZM200.503 170.152L200.512 170.402L200.505 169.902L200.503 170.152ZM200.547 171.091C198.554 171.091 196.641 170.747 194.863 170.114L194.696 170.585C196.526 171.237 198.496 171.591 200.547 171.591V171.091ZM206.23 170.114C204.453 170.747 202.539 171.091 200.547 171.091V171.591C202.597 171.591 204.567 171.237 206.398 170.585L206.23 170.114ZM206.305 170.599C206.315 170.6 206.325 170.6 206.335 170.6L206.335 170.1C206.331 170.1 206.327 170.1 206.323 170.1L206.305 170.599ZM206.334 170.6L210.862 170.609L210.863 170.109L206.336 170.1L206.334 170.6ZM210.862 170.609H210.863V170.109H210.862V170.609ZM210.863 170.609C211.329 170.609 211.707 170.232 211.708 169.766L211.208 169.766C211.208 169.956 211.054 170.109 210.863 170.109V170.609ZM211.708 169.766C211.709 169.3 211.332 168.921 210.865 168.92L210.864 169.42C211.054 169.421 211.208 169.575 211.208 169.766L211.708 169.766ZM210.865 168.92L208.924 168.916L208.923 169.416L210.864 169.42L210.865 168.92ZM214.323 164.035C212.867 166.048 210.981 167.731 208.801 168.948L209.045 169.385C211.289 168.132 213.229 166.4 214.728 164.328L214.323 164.035ZM218.055 161.639L214.391 163.971L214.659 164.393L218.323 162.061L218.055 161.639ZM218.161 161.164C218.263 161.324 218.216 161.537 218.055 161.639L218.323 162.061C218.717 161.811 218.833 161.289 218.582 160.895L218.161 161.164ZM217.685 161.058C217.846 160.955 218.059 161.003 218.16 161.164L218.583 160.896C218.333 160.502 217.811 160.385 217.417 160.636L217.685 161.058ZM216.066 162.088L217.685 161.058L217.416 160.636L215.797 161.666L216.066 162.088ZM217.477 155.53C217.291 157.757 216.674 159.863 215.709 161.764L216.155 161.99C217.148 160.033 217.784 157.864 217.976 155.572L217.477 155.53ZM217.509 155.426C217.507 155.431 217.504 155.436 217.502 155.441L217.951 155.66C217.957 155.648 217.963 155.636 217.969 155.623L217.509 155.426ZM219.292 151.264L217.509 155.426L217.969 155.623L219.752 151.461L219.292 151.264ZM219.112 150.812C219.286 150.887 219.367 151.089 219.292 151.264L219.752 151.461C219.936 151.033 219.737 150.536 219.308 150.353L219.112 150.812ZM218.659 150.993C218.734 150.819 218.939 150.738 219.111 150.812L219.309 150.353C218.883 150.169 218.383 150.367 218.2 150.796L218.659 150.993ZM217.949 152.65L218.659 150.993L218.2 150.796L217.489 152.453L217.949 152.65ZM215.678 146.331C216.661 148.248 217.276 150.36 217.47 152.573L217.968 152.53C217.768 150.252 217.135 148.077 216.123 146.103L215.678 146.331ZM216.15 146.214C216.15 146.178 216.147 146.141 216.142 146.104L215.647 146.174C215.649 146.189 215.65 146.204 215.65 146.219L216.15 146.214ZM216.142 146.104L215.501 141.622L215.006 141.693L215.647 146.174L216.142 146.104ZM215.501 141.622C215.435 141.16 215.007 140.839 214.545 140.906L214.616 141.4C214.805 141.373 214.979 141.504 215.006 141.693L215.501 141.622ZM214.545 140.905C214.083 140.971 213.762 141.399 213.828 141.861L214.323 141.79C214.296 141.602 214.427 141.427 214.616 141.4L214.545 140.905ZM213.828 141.861L214.103 143.779L214.598 143.709L214.323 141.79L213.828 141.861ZM209.302 139.538C211.225 140.696 212.858 142.179 214.151 143.894L214.55 143.594C213.219 141.827 211.538 140.301 209.56 139.109L209.302 139.538ZM208.83 139.655C208.927 139.492 209.14 139.44 209.302 139.538L209.56 139.11C209.162 138.869 208.641 138.997 208.401 139.397L208.83 139.655ZM208.947 140.128C208.784 140.029 208.731 139.818 208.829 139.655L208.401 139.397C208.16 139.797 208.289 140.315 208.689 140.556L208.947 140.128ZM213.848 144.648C212.57 142.857 210.916 141.314 208.947 140.128L208.689 140.556C210.6 141.707 212.203 143.203 213.441 144.939L213.848 144.648ZM213.75 144.567L211.776 143.648L211.564 144.101L213.539 145.02L213.75 144.567ZM211.775 143.647C211.35 143.451 210.85 143.635 210.654 144.057L211.107 144.268C211.187 144.096 211.39 144.021 211.565 144.101L211.775 143.647ZM210.654 144.057C210.457 144.48 210.64 144.982 211.063 145.179L211.274 144.726C211.101 144.645 211.027 144.441 211.107 144.268L210.654 144.057ZM211.063 145.179L214.669 146.858L214.88 146.405L211.274 144.726L211.063 145.179ZM216.828 153.286C216.711 150.876 216.076 148.577 214.996 146.516L214.553 146.748C215.6 148.744 216.215 150.973 216.329 153.31L216.828 153.286ZM215.101 151.532L216.37 153.436L216.787 153.159L215.517 151.255L215.101 151.532ZM214.623 151.437C214.782 151.331 214.995 151.374 215.101 151.532L215.517 151.255C215.258 150.866 214.734 150.762 214.346 151.02L214.623 151.437ZM214.528 151.914C214.422 151.756 214.465 151.542 214.623 151.437L214.346 151.02C213.957 151.279 213.853 151.804 214.112 152.192L214.528 151.914ZM216.755 155.254L214.528 151.914L214.112 152.192L216.338 155.532L216.755 155.254ZM213.894 163.45C215.518 161.138 216.558 158.387 216.796 155.413L216.297 155.373C216.067 158.255 215.059 160.922 213.485 163.163L213.894 163.45ZM213.724 163.668C213.746 163.605 213.785 163.548 213.841 163.505L213.538 163.108C213.4 163.212 213.303 163.353 213.251 163.507L213.724 163.668ZM210.793 166.771C211.883 165.888 212.857 164.867 213.689 163.735L213.286 163.439C212.48 164.536 211.535 165.526 210.478 166.382L210.793 166.771ZM210.829 166.736C212.731 164.431 213.876 161.478 213.876 158.263H213.376C213.376 161.357 212.274 164.199 210.443 166.417L210.829 166.736ZM213.876 158.263C213.876 155.682 213.152 153.233 211.833 151.144L211.41 151.412C212.679 153.42 213.376 155.776 213.376 158.263H213.876ZM211.87 151.3L212.089 148.825L211.591 148.781L211.372 151.256L211.87 151.3ZM212.089 148.825C212.13 148.36 211.786 147.95 211.322 147.91L211.278 148.408C211.467 148.424 211.607 148.592 211.591 148.781L212.089 148.825ZM211.318 147.909C210.851 147.875 210.448 148.211 210.406 148.676L210.904 148.721C210.921 148.533 211.081 148.393 211.281 148.408L211.318 147.909ZM210.406 148.677L210.307 149.805L210.805 149.849L210.904 148.72L210.406 148.677ZM210.747 149.665C209.816 148.567 208.698 147.61 207.416 146.838L207.157 147.266C208.393 148.011 209.47 148.932 210.365 149.988L210.747 149.665ZM207.415 146.838C207.017 146.598 206.497 146.725 206.256 147.126L206.685 147.383C206.783 147.221 206.994 147.168 207.158 147.266L207.415 146.838ZM206.257 147.125C206.016 147.525 206.144 148.044 206.545 148.285L206.802 147.856C206.639 147.758 206.587 147.546 206.685 147.383L206.257 147.125ZM206.544 148.284C209.279 149.932 211.159 152.536 211.87 155.537L212.357 155.422C211.614 152.29 209.651 149.573 206.802 147.856L206.544 148.284ZM212.206 155.247L211.375 154.915L211.189 155.379L212.02 155.711L212.206 155.247ZM211.375 154.915C210.946 154.743 210.451 154.951 210.277 155.385L210.742 155.571C210.812 155.395 211.015 155.309 211.189 155.379L211.375 154.915ZM210.277 155.385C210.104 155.819 210.316 156.31 210.748 156.483L210.934 156.019C210.757 155.948 210.671 155.747 210.742 155.571L210.277 155.385ZM210.748 156.483L212.263 157.089L212.448 156.625L210.934 156.019L210.748 156.483ZM212.107 156.886C212.16 157.338 212.187 157.798 212.187 158.263H212.687C212.687 157.779 212.659 157.3 212.604 156.828L212.107 156.886ZM212.187 158.263C212.187 159.577 211.968 160.841 211.565 162.02L212.038 162.182C212.458 160.951 212.687 159.633 212.687 158.263H212.187ZM211.988 161.935L211.396 161.268L211.022 161.601L211.614 162.267L211.988 161.935ZM211.396 161.268C211.086 160.92 210.552 160.889 210.204 161.198L210.536 161.572C210.678 161.446 210.896 161.458 211.022 161.601L211.396 161.268ZM210.204 161.198C209.855 161.508 209.824 162.042 210.134 162.391L210.508 162.059C210.381 161.916 210.394 161.699 210.536 161.572L210.204 161.198ZM210.134 162.391L211.116 163.495L211.489 163.163L210.508 162.059L210.134 162.391ZM211.076 163.222C210.262 164.943 209.038 166.435 207.531 167.569L207.831 167.968C209.403 166.786 210.679 165.231 211.528 163.436L211.076 163.222ZM207.881 167.919C209.032 166.387 209.714 164.483 209.714 162.424H209.214C209.214 164.371 208.569 166.17 207.481 167.618L207.881 167.919ZM209.714 162.424C209.714 161.087 209.427 159.816 208.91 158.669L208.454 158.875C208.942 159.958 209.214 161.16 209.214 162.424H209.714ZM208.916 158.858L208.921 158.846L208.452 158.674L208.447 158.686L208.916 158.858ZM208.922 158.844L209.479 157.283L209.008 157.115L208.451 158.676L208.922 158.844ZM209.479 157.284C209.637 156.844 209.407 156.361 208.968 156.204L208.8 156.675C208.979 156.739 209.072 156.936 209.008 157.115L209.479 157.284ZM208.968 156.204C208.529 156.047 208.045 156.276 207.889 156.716L208.36 156.883C208.423 156.704 208.621 156.611 208.799 156.675L208.968 156.204ZM207.889 156.715L207.675 157.315L208.146 157.483L208.36 156.883L207.889 156.715ZM208.116 157.258C206.464 154.844 203.688 153.257 200.547 153.257V153.757C203.515 153.757 206.141 155.257 207.704 157.54L208.116 157.258ZM200.547 153.257C200.08 153.257 199.702 153.635 199.702 154.101H200.202C200.202 153.911 200.356 153.757 200.547 153.757V153.257ZM199.702 154.101C199.702 154.567 200.08 154.946 200.547 154.946V154.446C200.356 154.446 200.202 154.291 200.202 154.101H199.702ZM200.547 154.946C200.838 154.946 201.125 154.962 201.407 154.995L201.464 154.498C201.163 154.463 200.857 154.446 200.547 154.446V154.946ZM201.232 154.601L199.972 156.359L200.378 156.65L201.638 154.892L201.232 154.601ZM199.972 156.359C199.7 156.738 199.788 157.266 200.166 157.537L200.457 157.131C200.303 157.02 200.267 156.805 200.378 156.65L199.972 156.359ZM200.166 157.537C200.315 157.644 200.488 157.695 200.658 157.695V157.195C200.588 157.195 200.518 157.174 200.457 157.131L200.166 157.537ZM200.658 157.695C200.92 157.695 201.18 157.573 201.345 157.343L200.938 157.051C200.871 157.145 200.766 157.195 200.658 157.195V157.695ZM201.345 157.343L202.916 155.15L202.509 154.859L200.938 157.051L201.345 157.343ZM202.643 155.244C205.75 156.153 208.025 159.028 208.025 162.424H208.525C208.525 158.8 206.097 155.733 202.783 154.765L202.643 155.244ZM208.025 162.424C208.025 163.955 207.563 165.38 206.771 166.566L207.186 166.844C208.032 165.578 208.525 164.057 208.525 162.424H208.025ZM207.185 166.564L206.668 165.811L206.256 166.093L206.772 166.846L207.185 166.564ZM206.668 165.811C206.405 165.426 205.879 165.327 205.494 165.592L205.777 166.004C205.934 165.896 206.148 165.936 206.256 166.093L206.668 165.811ZM205.494 165.592C205.109 165.856 205.012 166.381 205.275 166.765L205.688 166.483C205.58 166.326 205.62 166.112 205.777 166.004L205.494 165.592ZM205.275 166.766L206 167.823L206.412 167.54L205.687 166.483L205.275 166.766ZM206.023 167.512C205.326 168.261 204.478 168.868 203.527 169.283L203.727 169.741C204.742 169.298 205.646 168.651 206.389 167.852L206.023 167.512ZM203.767 169.304C201.691 167.911 200.164 166.139 199.188 164.003L198.733 164.211C199.75 166.436 201.34 168.278 203.488 169.719L203.767 169.304ZM199.162 164.256L200.036 163.075L199.634 162.778L198.76 163.958L199.162 164.256ZM200.036 163.075C200.313 162.701 200.235 162.172 199.861 161.894L199.563 162.296C199.715 162.409 199.747 162.625 199.634 162.778L200.036 163.075ZM199.86 161.893C199.485 161.617 198.957 161.695 198.679 162.07L199.08 162.368C199.194 162.215 199.409 162.183 199.564 162.296L199.86 161.893ZM198.679 162.07L198.246 162.654L198.648 162.951L199.081 162.368L198.679 162.07ZM198.684 162.723C198.198 161.27 197.934 159.665 197.899 157.911L197.399 157.921C197.435 159.719 197.705 161.375 198.21 162.882L198.684 162.723ZM197.899 157.911C197.86 155.968 198.124 154.201 198.399 152.915C198.537 152.273 198.677 151.751 198.783 151.389C198.836 151.208 198.881 151.067 198.913 150.971C198.928 150.923 198.941 150.886 198.95 150.861C198.954 150.848 198.957 150.839 198.96 150.832C198.962 150.825 198.963 150.822 198.963 150.822L198.493 150.652C198.477 150.696 197.32 153.941 197.399 157.921L197.899 157.911ZM198.963 150.822C199.121 150.384 198.896 149.9 198.457 149.74L198.286 150.21C198.465 150.275 198.558 150.473 198.493 150.652L198.963 150.822ZM198.456 149.74C198.02 149.583 197.535 149.807 197.375 150.246L197.845 150.416C197.91 150.239 198.108 150.146 198.287 150.211L198.456 149.74ZM197.376 150.245C197.355 150.303 196.808 151.856 196.479 154.152L196.974 154.223C197.135 153.097 197.35 152.153 197.526 151.487C197.614 151.154 197.693 150.89 197.75 150.707C197.778 150.616 197.802 150.545 197.818 150.496C197.826 150.471 197.833 150.452 197.838 150.439C197.84 150.432 197.842 150.427 197.843 150.423C197.844 150.421 197.844 150.419 197.845 150.418C197.845 150.417 197.845 150.417 197.845 150.417L197.376 150.245ZM196.925 154.036L195.72 152.451L195.322 152.753L196.527 154.339L196.925 154.036ZM195.72 152.451C195.439 152.08 194.909 152.007 194.537 152.29L194.839 152.688C194.992 152.572 195.207 152.602 195.322 152.753L195.72 152.451ZM194.537 152.29C194.165 152.572 194.094 153.102 194.376 153.473L194.774 153.17C194.659 153.019 194.688 152.803 194.839 152.688L194.537 152.29ZM194.376 153.473L196.258 155.95L196.656 155.647L194.774 153.17L194.376 153.473ZM196.258 155.949C196.295 155.998 196.335 156.041 196.38 156.079L196.706 155.7C196.688 155.685 196.672 155.667 196.657 155.647L196.258 155.949ZM196.294 155.872C196.057 159.17 196.448 163.413 199.018 167.035L199.426 166.746C196.95 163.256 196.56 159.147 196.792 155.907L196.294 155.872ZM199.175 166.645L198.902 166.697L198.996 167.188L199.269 167.136L199.175 166.645ZM198.902 166.697C198.444 166.785 198.143 167.227 198.231 167.685L198.722 167.591C198.686 167.404 198.809 167.224 198.996 167.188L198.902 166.697ZM198.231 167.685C198.308 168.09 198.662 168.371 199.06 168.371V167.871C198.898 167.871 198.753 167.756 198.722 167.591L198.231 167.685ZM199.06 168.371C199.112 168.371 199.165 168.366 199.217 168.357L199.126 167.865C199.103 167.869 199.081 167.871 199.06 167.871V168.371ZM199.219 168.356L200.096 168.189L200.003 167.698L199.125 167.865L199.219 168.356ZM199.861 168.107C200.492 168.834 201.225 169.526 202.072 170.169L202.374 169.77C201.554 169.148 200.847 168.48 200.238 167.78L199.861 168.107ZM202.169 169.725C201.66 169.838 201.132 169.899 200.589 169.902L200.592 170.402C201.17 170.399 201.734 170.334 202.277 170.213L202.169 169.725ZM200.547 170.402C200.562 170.402 200.577 170.402 200.592 170.402L200.59 169.902C200.576 169.902 200.561 169.902 200.547 169.902V170.402ZM200.538 169.902L194.771 170.099L194.788 170.599L200.555 170.402L200.538 169.902ZM194.758 170.6C194.768 170.6 194.779 170.6 194.789 170.599L194.77 170.099C194.766 170.1 194.761 170.1 194.757 170.1L194.758 170.6ZM190.231 170.609L194.758 170.6L194.757 170.1L190.23 170.109L190.231 170.609ZM190.229 170.609H190.23V170.109H190.229V170.609ZM189.385 169.766C189.385 170.232 189.763 170.609 190.229 170.609V170.109C190.039 170.109 189.885 169.956 189.885 169.766L189.385 169.766ZM190.227 168.92C189.761 168.921 189.384 169.3 189.385 169.766L189.885 169.766C189.884 169.575 190.038 169.421 190.228 169.42L190.227 168.92ZM192.17 168.916L190.227 168.92L190.228 169.42L192.171 169.416L192.17 168.916ZM192.292 168.948C190.113 167.731 188.228 166.049 186.772 164.036L186.367 164.329C187.865 166.401 189.805 168.132 192.048 169.385L192.292 168.948ZM186.703 163.972L183.037 161.639L182.769 162.061L186.435 164.394L186.703 163.972ZM183.037 161.639C182.877 161.537 182.83 161.324 182.932 161.164L182.51 160.895C182.259 161.289 182.376 161.811 182.769 162.061L183.037 161.639ZM182.932 161.164C183.034 161.003 183.246 160.956 183.408 161.058L183.676 160.636C183.282 160.387 182.761 160.501 182.51 160.896L182.932 161.164ZM183.408 161.058L185.028 162.089L185.297 161.667L183.676 160.636L183.408 161.058ZM185.385 161.765C184.42 159.864 183.802 157.758 183.616 155.531L183.118 155.573C183.31 157.865 183.946 160.034 184.939 161.991L185.385 161.765ZM183.125 155.623C183.13 155.636 183.136 155.649 183.142 155.662L183.592 155.442C183.589 155.437 183.587 155.431 183.584 155.426L183.125 155.623ZM181.341 151.462L183.125 155.623L183.584 155.426L181.801 151.265L181.341 151.462ZM181.785 150.353C181.356 150.536 181.157 151.033 181.341 151.462L181.801 151.264C181.726 151.09 181.807 150.887 181.982 150.812L181.785 150.353ZM182.893 150.796C182.71 150.367 182.21 150.168 181.784 150.353L181.983 150.812C182.154 150.738 182.359 150.818 182.434 150.993L182.893 150.796ZM183.604 152.454L182.893 150.796L182.434 150.993L183.145 152.651L183.604 152.454ZM183.623 152.575C183.817 150.38 184.427 148.275 185.415 146.351L184.971 146.123C183.953 148.105 183.325 150.272 183.125 152.531L183.623 152.575ZM184.951 146.104C184.945 146.15 184.942 146.197 184.943 146.243L185.443 146.231C185.443 146.212 185.444 146.193 185.446 146.174L184.951 146.104ZM185.592 141.622L184.951 146.104L185.446 146.174L186.087 141.693L185.592 141.622ZM186.546 140.905C186.087 140.843 185.659 141.159 185.592 141.622L186.087 141.693C186.114 141.506 186.288 141.375 186.479 141.401L186.546 140.905ZM187.265 141.861C187.331 141.399 187.01 140.971 186.548 140.905L186.477 141.4C186.666 141.427 186.797 141.602 186.77 141.79L187.265 141.861ZM186.986 143.806L187.265 141.861L186.77 141.79L186.491 143.736L186.986 143.806ZM186.939 143.921C187.456 143.234 188.029 142.58 188.656 141.965L188.306 141.608C187.661 142.24 187.071 142.913 186.539 143.621L186.939 143.921ZM188.656 141.966C188.793 141.832 189.011 141.835 189.143 141.97L189.501 141.621C189.174 141.286 188.64 141.283 188.306 141.608L188.656 141.966ZM189.143 141.97C189.277 142.106 189.274 142.324 189.139 142.457L189.489 142.815C189.822 142.488 189.827 141.953 189.5 141.62L189.143 141.97ZM189.139 142.457C188.446 143.136 187.821 143.866 187.268 144.638L187.674 144.929C188.21 144.181 188.816 143.473 189.488 142.815L189.139 142.457ZM189.317 143.648L187.366 144.557L187.577 145.01L189.528 144.101L189.317 143.648ZM190.439 144.057C190.243 143.634 189.742 143.451 189.318 143.647L189.528 144.101C189.702 144.02 189.906 144.096 189.986 144.267L190.439 144.057ZM190.03 145.179C190.453 144.982 190.636 144.48 190.439 144.057L189.986 144.268C190.066 144.44 189.992 144.645 189.819 144.726L190.03 145.179ZM186.438 146.852L190.03 145.179L189.819 144.726L186.227 146.399L186.438 146.852ZM186.111 146.509C185.015 148.586 184.382 150.886 184.265 153.285L184.765 153.309C184.878 150.983 185.492 148.754 186.553 146.742L186.111 146.509ZM185.576 151.255L184.307 153.158L184.723 153.436L185.992 151.532L185.576 151.255ZM186.747 151.02C186.358 150.762 185.834 150.866 185.576 151.255L185.992 151.532C186.097 151.374 186.31 151.331 186.47 151.437L186.747 151.02ZM186.981 152.192C187.24 151.804 187.136 151.279 186.747 151.02L186.47 151.437C186.628 151.542 186.671 151.756 186.565 151.914L186.981 152.192ZM184.755 155.531L186.981 152.192L186.565 151.914L184.339 155.254L184.755 155.531ZM184.298 155.413C184.536 158.387 185.576 161.14 187.201 163.452L187.61 163.164C186.035 160.923 185.027 158.256 184.796 155.373L184.298 155.413ZM187.253 163.506C187.307 163.548 187.346 163.604 187.368 163.666L187.84 163.503C187.788 163.352 187.692 163.214 187.558 163.11L187.253 163.506ZM187.403 163.733C188.235 164.866 189.21 165.887 190.301 166.771L190.616 166.383C189.558 165.526 188.613 164.535 187.806 163.437L187.403 163.733ZM187.329 159.99C187.66 162.532 188.709 164.851 190.266 166.736L190.651 166.418C189.153 164.603 188.143 162.371 187.825 159.925L187.329 159.99ZM187.319 159.905C187.321 159.938 187.326 159.971 187.332 160.003L187.823 159.912C187.821 159.898 187.819 159.885 187.818 159.871L187.319 159.905ZM187.218 158.263C187.218 158.823 187.253 159.376 187.32 159.919L187.817 159.857C187.752 159.335 187.718 158.803 187.718 158.263H187.218ZM188.43 152.737C187.651 154.431 187.218 156.306 187.218 158.263H187.718C187.718 156.38 188.134 154.576 188.884 152.945L188.43 152.737ZM188.407 149.345V152.841H188.907V149.345H188.407ZM189.251 148.501C188.785 148.501 188.407 148.879 188.407 149.345H188.907C188.907 149.155 189.061 149.001 189.251 149.001V148.501ZM190.096 149.345C190.096 148.879 189.718 148.501 189.251 148.501V149.001C189.442 149.001 189.596 149.155 189.596 149.345H190.096ZM190.096 150.772V149.345H189.596V150.772H190.096ZM198.644 145.069C194.906 145.603 191.698 147.698 189.641 150.628L190.05 150.916C192.032 148.092 195.121 146.078 198.715 145.564L198.644 145.069ZM199.6 145.785C199.534 145.325 199.107 144.999 198.642 145.069L198.716 145.564C198.902 145.536 199.077 145.666 199.105 145.856L199.6 145.785ZM198.883 146.741C199.345 146.675 199.666 146.247 199.6 145.785L199.105 145.856C199.131 146.044 199.001 146.219 198.812 146.246L198.883 146.741ZM188.907 158.235C188.921 152.492 193.206 147.553 198.883 146.741L198.812 146.246C192.888 147.093 188.421 152.243 188.407 158.234L188.907 158.235ZM189.178 157.152L188.459 158.082L188.855 158.387L189.573 157.458L189.178 157.152ZM190.363 157C189.993 156.713 189.461 156.784 189.177 157.152L189.574 157.457C189.689 157.307 189.906 157.278 190.056 157.395L190.363 157ZM190.514 158.184C190.799 157.816 190.732 157.285 190.362 157L190.057 157.395C190.207 157.512 190.235 157.728 190.118 157.879L190.514 158.184ZM188.983 160.165L190.514 158.184L190.118 157.879L188.588 159.86L188.983 160.165ZM193.563 167.569C191.17 165.768 189.491 163.068 189.033 159.976L188.538 160.049C189.016 163.276 190.768 166.092 193.263 167.969L193.563 167.569ZM191.38 162.424C191.38 164.483 192.062 166.387 193.213 167.919L193.613 167.619C192.525 166.17 191.88 164.371 191.88 162.424H191.38ZM191.786 159.715C191.517 160.585 191.38 161.496 191.38 162.424H191.88C191.88 161.545 192.01 160.684 192.263 159.863L191.786 159.715ZM191.277 159.363L191.843 159.961L192.206 159.617L191.64 159.02L191.277 159.363ZM191.309 158.17C190.97 158.49 190.956 159.025 191.277 159.363L191.64 159.02C191.509 158.881 191.515 158.663 191.653 158.533L191.309 158.17ZM192.503 158.203C192.182 157.862 191.647 157.851 191.309 158.169L191.652 158.533C191.792 158.402 192.01 158.408 192.139 158.546L192.503 158.203ZM192.685 158.395L192.503 158.202L192.14 158.546L192.322 158.739L192.685 158.395ZM193.023 157.185C192.739 157.592 192.491 158.018 192.279 158.459L192.729 158.675C192.93 158.259 193.165 157.856 193.433 157.471L193.023 157.185ZM194.199 156.975C193.815 156.708 193.29 156.802 193.023 157.185L193.434 157.471C193.542 157.315 193.756 157.276 193.913 157.385L194.199 156.975ZM194.409 158.151C194.675 157.769 194.582 157.243 194.199 156.975L193.913 157.385C194.069 157.494 194.108 157.709 193.999 157.865L194.409 158.151ZM193.069 162.424C193.069 160.885 193.532 159.408 194.409 158.151L193.999 157.865C193.063 159.206 192.569 160.783 192.569 162.424H193.069ZM193.864 165.779C193.355 164.77 193.069 163.63 193.069 162.424H192.569C192.569 163.71 192.875 164.927 193.418 166.004L193.864 165.779ZM193.78 165.295L193.442 165.741L193.84 166.043L194.179 165.597L193.78 165.295ZM194.963 165.132C194.59 164.849 194.062 164.924 193.78 165.294L194.178 165.597C194.294 165.445 194.509 165.415 194.662 165.531L194.963 165.132ZM195.126 166.316C195.408 165.944 195.335 165.414 194.964 165.132L194.661 165.53C194.813 165.646 194.843 165.862 194.728 166.013L195.126 166.316ZM194.507 167.131L195.126 166.316L194.728 166.013L194.109 166.829L194.507 167.131ZM200.505 169.902C198.046 169.889 195.864 168.683 194.51 166.833L194.106 167.128C195.55 169.1 197.878 170.388 200.502 170.402L200.505 169.902ZM200.495 169.902L194.771 170.099L194.788 170.599L200.512 170.402L200.495 169.902Z" fill="black"/>
<path d="M41.0117 119.613C41.2803 119.218 41.4986 117.29 41.5761 116.818C41.8081 115.965 42.242 110.572 42.242 108.944C42.242 108.084 42.3219 106.975 42.5994 106.435C43.0899 105.491 44.1661 103.553 45.0443 103.118C44.5562 103.148 42.9586 104.061 42.5994 104.393C42.1885 104.725 41.8076 105.283 41.5516 105.745C41.2326 106.302 41.2077 106.915 41.0745 107.543C40.7948 108.86 40.8153 114.675 40.8153 115.852C40.8152 117.03 40.9503 119.593 41.0117 119.613Z" fill="white"/>
<path d="M21.8363 130.617C22.1407 129.677 21.934 125.643 22.1407 123.989C22.2474 123.136 22.4677 122.264 22.7451 121.723C23.2356 120.78 24.9294 119.584 25.8076 119.148C25.3194 119.178 23.7218 120.092 23.3626 120.424C22.347 121.243 22.0913 121.905 21.8363 123.107C21.6955 123.77 21.6399 125.678 21.6399 126.856C21.6399 128.034 21.7749 130.596 21.8363 130.617Z" fill="white"/>
<path d="M63.1329 120.588C63.3171 119.003 63.2217 117.307 63.7602 115.786C64.0988 114.843 65.268 113.647 65.8742 113.212C65.5373 113.242 64.4344 114.155 64.1865 114.487C63.3626 115.45 63.1329 116.572 63.1329 117.956C63.1328 119.134 63.0905 120.567 63.1329 120.588Z" fill="white"/>
</g>
<path d="M192.801 110.282C192.688 110.274 192.591 110.359 192.583 110.471C192.567 110.704 192.79 111.42 193.256 111.903C193.401 112.054 193.56 112.169 193.728 112.248C193.428 112.401 193.13 112.523 192.79 112.523C192.789 112.523 192.788 112.522 192.787 112.523C192.674 112.523 192.583 112.614 192.583 112.726C192.582 112.839 192.674 112.931 192.786 112.931H192.79C193.323 112.931 193.75 112.702 194.163 112.48C194.519 112.289 194.855 112.108 195.236 112.09C195.348 112.085 195.435 111.989 195.43 111.877C195.425 111.764 195.33 111.677 195.216 111.682C194.865 111.699 194.558 111.82 194.267 111.965C194.015 111.961 193.779 111.851 193.566 111.636C193.161 111.229 192.986 110.605 192.99 110.499C192.998 110.386 192.913 110.289 192.801 110.282Z" fill="#6697FE" stroke="#6697FE" stroke-width="0.2"/>
<path d="M193.699 113.262L193.486 113.475C193.406 113.555 193.406 113.684 193.486 113.764C193.525 113.804 193.578 113.824 193.63 113.824C193.682 113.824 193.734 113.804 193.774 113.764L193.987 113.551C194.067 113.471 194.067 113.342 193.987 113.262C193.908 113.182 193.778 113.182 193.699 113.262Z" fill="#6697FE" stroke="#6697FE" stroke-width="0.2"/>
<path d="M193.864 116.483C193.974 116.46 194.045 116.351 194.021 116.241C193.998 116.131 193.889 116.061 193.779 116.084C193.48 116.148 193.244 116.141 193.127 116.119C193.002 115.761 192.838 115.405 192.346 115.17C192.245 115.121 192.123 115.164 192.074 115.265C192.025 115.367 192.068 115.489 192.17 115.538C192.565 115.727 192.657 116.001 192.784 116.379C192.906 116.741 193.058 117.192 193.54 117.618C193.579 117.652 193.627 117.669 193.675 117.669C193.731 117.669 193.787 117.646 193.828 117.6C193.902 117.515 193.895 117.386 193.81 117.312C193.521 117.057 193.378 116.798 193.276 116.542C193.294 116.543 193.311 116.543 193.329 116.543C193.491 116.543 193.676 116.523 193.864 116.483Z" fill="#6697FE" stroke="#6697FE" stroke-width="0.2"/>
<path d="M196.224 115.788L196.011 116.001C195.931 116.08 195.931 116.21 196.011 116.289C196.051 116.329 196.103 116.349 196.155 116.349C196.207 116.349 196.26 116.329 196.299 116.289L196.513 116.076C196.592 115.996 196.592 115.867 196.513 115.788C196.433 115.708 196.304 115.708 196.224 115.788Z" fill="#6697FE" stroke="#6697FE" stroke-width="0.2"/>
<path d="M186.451 112.657C186.614 112.544 186.883 112.464 187.192 112.422C186.897 112.879 186.656 113.374 186.488 113.88C186.453 113.987 186.511 114.103 186.618 114.138C186.639 114.145 186.661 114.149 186.682 114.149C186.768 114.149 186.847 114.094 186.876 114.009C187.065 113.439 187.351 112.885 187.708 112.39C188.18 112.391 188.666 112.477 188.985 112.664C189.017 112.684 189.053 112.693 189.088 112.693C189.158 112.693 189.226 112.657 189.264 112.592C189.321 112.495 189.289 112.37 189.192 112.313C188.877 112.127 188.455 112.024 188.021 111.991C188.124 111.871 188.231 111.755 188.342 111.645C188.509 111.479 188.681 111.312 188.859 111.148C188.89 111.178 188.924 111.206 188.96 111.234C189.157 111.386 189.402 111.502 189.584 111.529C189.595 111.53 189.605 111.531 189.615 111.531C189.714 111.531 189.801 111.458 189.816 111.357C189.833 111.246 189.756 111.142 189.644 111.125C189.53 111.108 189.327 111.014 189.164 110.873C189.545 110.54 189.95 110.228 190.386 109.973C190.424 109.951 190.463 109.929 190.502 109.907C190.732 110.038 190.961 110.209 191.117 110.415C191.183 110.502 191.231 110.589 191.262 110.676C191.263 110.68 191.265 110.684 191.266 110.687C191.315 110.832 191.318 110.979 191.275 111.131C191.244 111.24 191.307 111.352 191.416 111.383C191.434 111.388 191.453 111.391 191.471 111.391C191.56 111.391 191.642 111.332 191.668 111.242C191.724 111.044 191.727 110.844 191.679 110.651C191.716 110.604 191.772 110.537 191.821 110.479C192.081 110.17 192.463 109.717 192.586 109.285C192.695 109.278 192.806 109.275 192.917 109.275C193.7 109.275 194.42 109.464 195.11 109.756C194.822 109.939 194.572 110.171 194.365 110.363L194.314 110.411C194.232 110.488 194.227 110.617 194.303 110.699C194.344 110.743 194.398 110.765 194.453 110.765C194.503 110.765 194.552 110.747 194.592 110.71L194.643 110.662C194.915 110.41 195.224 110.122 195.568 109.966C196.069 110.213 196.557 110.506 197.046 110.81C197.258 110.942 197.455 111.095 197.639 111.268C197.466 111.411 197.297 111.577 197.136 111.763C196.887 111.477 196.428 111.128 195.993 110.992C195.886 110.958 195.771 111.018 195.737 111.126C195.704 111.233 195.764 111.348 195.871 111.381C196.322 111.522 196.737 111.91 196.878 112.089C196.405 112.744 196.162 113.441 196.207 114.033C196.215 114.141 196.304 114.222 196.41 114.222C196.415 114.222 196.42 114.222 196.425 114.222C196.538 114.213 196.622 114.115 196.614 114.003C196.573 113.46 196.848 112.764 197.351 112.143C197.53 111.92 197.725 111.724 197.923 111.564C198.188 111.869 198.416 112.223 198.607 112.623C198.655 112.725 198.777 112.768 198.879 112.72C198.981 112.671 199.024 112.549 198.975 112.448C198.775 112.027 198.535 111.653 198.258 111.327C198.479 111.194 198.696 111.11 198.891 111.087C199.003 111.074 199.083 110.973 199.07 110.861C199.057 110.749 198.956 110.669 198.844 110.682C198.568 110.714 198.27 110.833 197.973 111.023C197.755 110.811 197.518 110.624 197.261 110.464C196.93 110.257 196.599 110.056 196.263 109.87C196.316 109.88 196.371 109.895 196.426 109.915C196.531 109.954 196.649 109.9 196.688 109.794C196.726 109.688 196.672 109.571 196.566 109.532C196.214 109.402 195.886 109.422 195.588 109.522C194.76 109.131 193.89 108.867 192.917 108.867C192.813 108.867 192.711 108.869 192.61 108.875C192.601 108.83 192.587 108.787 192.567 108.744C192.52 108.642 192.399 108.597 192.296 108.644C192.194 108.691 192.15 108.812 192.196 108.914C191.573 108.997 191.014 109.186 190.504 109.445C190.17 109.283 189.861 109.199 189.718 109.199C189.605 109.199 189.514 109.291 189.514 109.404C189.514 109.516 189.605 109.608 189.718 109.608C189.772 109.608 189.897 109.638 190.054 109.697C189.653 109.944 189.28 110.231 188.927 110.538C188.92 110.514 188.915 110.489 188.913 110.465C188.901 110.353 188.801 110.271 188.689 110.282C188.577 110.293 188.495 110.393 188.506 110.505C188.517 110.616 188.551 110.723 188.605 110.826C188.417 111 188.235 111.177 188.055 111.355C187.858 111.549 187.673 111.76 187.502 111.984C186.982 112.008 186.498 112.128 186.219 112.321C186.127 112.385 186.103 112.512 186.167 112.604C186.231 112.697 186.358 112.721 186.451 112.657ZM192.133 109.336C191.983 109.653 191.673 110.021 191.509 110.216C191.503 110.223 191.497 110.23 191.491 110.237C191.476 110.214 191.46 110.191 191.443 110.169C191.304 109.985 191.124 109.826 190.931 109.693C191.322 109.52 191.721 109.401 192.133 109.336Z" fill="#6697FE" stroke="#6697FE" stroke-width="0.2"/>
<path d="M197.292 115.965C197.302 115.967 197.311 115.967 197.321 115.967C197.421 115.967 197.508 115.894 197.523 115.792C197.55 115.598 197.48 115.402 197.321 115.224C197.221 115.112 197.021 114.949 196.874 114.949C196.872 114.949 196.87 114.949 196.868 114.949C196.755 114.953 196.667 115.047 196.671 115.16C196.674 115.258 196.746 115.338 196.839 115.354C196.912 115.388 197.142 115.567 197.119 115.734C197.103 115.846 197.18 115.949 197.292 115.965Z" fill="#6697FE" stroke="#6697FE" stroke-width="0.2"/>
<path d="M189.556 115.298C189.276 115.382 188.781 115.868 188.706 116.057C188.664 116.161 188.715 116.28 188.819 116.322C188.844 116.332 188.87 116.336 188.895 116.336C188.975 116.336 189.051 116.289 189.084 116.211C189.141 116.1 189.528 115.733 189.673 115.689C189.781 115.656 189.842 115.543 189.81 115.435C189.777 115.327 189.664 115.266 189.556 115.298Z" fill="#6697FE" stroke="#6697FE" stroke-width="0.2"/>
<path d="M190.645 118.68C190.931 119.027 191.256 119.42 191.852 119.702C191.88 119.715 191.91 119.721 191.939 119.721C192.016 119.721 192.089 119.678 192.124 119.605C192.172 119.503 192.129 119.381 192.027 119.333C191.687 119.172 191.449 118.968 191.248 118.754C191.291 118.743 191.336 118.731 191.383 118.719C191.821 118.604 192.367 118.461 192.606 118.749C192.646 118.797 192.704 118.822 192.763 118.822C192.809 118.822 192.855 118.807 192.893 118.775C192.98 118.703 192.992 118.575 192.92 118.488C192.514 118 191.801 118.187 191.28 118.324C191.156 118.356 191.038 118.387 190.945 118.403C190.553 117.928 190.14 117.443 189.102 117.37C188.99 117.362 188.892 117.447 188.884 117.559C188.876 117.672 188.961 117.769 189.074 117.777C189.949 117.839 190.256 118.21 190.645 118.68Z" fill="#6697FE" stroke="#6697FE" stroke-width="0.2"/>
<path d="M200.035 116.506C199.978 116.409 199.853 116.377 199.756 116.434C199.721 116.455 199.657 116.494 199.575 116.545C199.612 116.235 199.631 115.914 199.631 115.581C199.631 115.29 199.617 115.004 199.588 114.724C199.747 114.437 199.846 114.129 199.799 113.782C199.784 113.67 199.682 113.592 199.57 113.607C199.502 113.616 199.446 113.658 199.417 113.714C199.389 113.599 199.359 113.485 199.326 113.373C199.294 113.265 199.181 113.203 199.073 113.235C198.964 113.267 198.903 113.38 198.934 113.488C199.042 113.855 199.12 114.238 199.167 114.634C199.072 114.789 198.956 114.943 198.837 115.101C198.833 115.107 198.828 115.114 198.823 115.12C198.792 115.08 198.756 115.036 198.717 114.987C198.398 114.587 197.864 113.918 198.06 113.399C198.1 113.294 198.047 113.176 197.941 113.136C197.836 113.096 197.718 113.149 197.678 113.255C197.399 113.991 198.025 114.774 198.398 115.242C198.458 115.317 198.529 115.405 198.572 115.466C198.397 115.722 198.245 115.993 198.174 116.3C198.148 116.41 198.217 116.52 198.327 116.545C198.342 116.549 198.358 116.551 198.373 116.551C198.466 116.551 198.55 116.487 198.572 116.393C198.658 116.019 198.915 115.677 199.164 115.346C199.181 115.322 199.199 115.299 199.217 115.275C199.221 115.376 199.223 115.478 199.223 115.581C199.223 116.023 199.188 116.443 199.121 116.839C198.765 117.078 198.38 117.358 198.282 117.51C198.22 117.605 198.247 117.731 198.342 117.792C198.376 117.815 198.415 117.825 198.453 117.825C198.52 117.825 198.585 117.792 198.624 117.732C198.656 117.686 198.796 117.571 198.99 117.429C198.886 117.809 198.747 118.165 198.574 118.493C198.487 118.658 198.391 118.815 198.286 118.966C197.952 119.066 197.637 119.067 197.338 118.972C196.883 118.827 196.499 118.475 196.174 118.105C196.594 118.008 197.045 117.949 197.483 117.905C197.595 117.894 197.677 117.794 197.666 117.681C197.654 117.569 197.554 117.487 197.442 117.499C196.181 117.625 194.809 117.878 194.193 118.8C194.13 118.894 194.156 119.021 194.249 119.083C194.284 119.106 194.323 119.118 194.362 119.118C194.428 119.118 194.493 119.086 194.532 119.027C194.789 118.643 195.224 118.394 195.739 118.226C196.128 118.69 196.604 119.166 197.214 119.361C197.404 119.421 197.597 119.452 197.794 119.452C197.83 119.452 197.865 119.451 197.9 119.449C197.52 119.865 197.061 120.216 196.524 120.497C196.401 120.562 196.277 120.629 196.151 120.698C195.81 120.609 195.436 120.422 195.146 120.251C195.313 120.2 195.485 120.136 195.663 120.056C195.766 120.01 195.811 119.889 195.765 119.786C195.719 119.683 195.598 119.638 195.495 119.684C194.932 119.938 194.405 120.015 193.981 120.077C193.604 120.132 193.278 120.18 193.037 120.332C192.942 120.393 192.913 120.519 192.974 120.614C193.013 120.675 193.079 120.709 193.146 120.709C193.184 120.709 193.222 120.699 193.255 120.677C193.423 120.571 193.695 120.531 194.04 120.481C194.211 120.456 194.399 120.428 194.599 120.388C194.723 120.472 194.991 120.645 195.313 120.806C195.435 120.867 195.552 120.919 195.665 120.965C194.788 121.442 193.881 121.887 192.917 121.887C192.09 121.887 191.342 121.767 190.679 121.529C190.712 121.354 190.724 121.177 190.716 120.999C190.803 120.985 190.9 120.962 191.011 120.935C191.316 120.861 191.696 120.769 192.006 120.876C192.113 120.913 192.229 120.857 192.266 120.751C192.303 120.644 192.247 120.528 192.14 120.491C191.716 120.344 191.253 120.456 190.915 120.538C190.835 120.557 190.738 120.581 190.663 120.594C190.625 120.416 190.567 120.238 190.489 120.06C190.242 119.497 189.847 119.074 189.694 118.957C189.604 118.888 189.476 118.905 189.408 118.995C189.339 119.084 189.356 119.212 189.446 119.281C189.509 119.329 189.88 119.688 190.115 120.224C190.201 120.421 190.259 120.615 190.288 120.808C190.289 120.819 190.291 120.83 190.293 120.841C190.318 121.02 190.318 121.197 190.293 121.372C190.027 121.252 189.776 121.11 189.542 120.947C189.449 120.883 189.322 120.906 189.258 120.999C189.193 121.091 189.216 121.218 189.309 121.283C189.584 121.473 189.878 121.637 190.192 121.774C190.149 121.892 190.094 122.008 190.028 122.123C189.972 122.221 190.006 122.345 190.104 122.402C190.136 122.42 190.171 122.429 190.205 122.429C190.276 122.429 190.345 122.392 190.382 122.326C190.458 122.194 190.521 122.06 190.571 121.924C191.271 122.171 192.055 122.295 192.917 122.295C194.095 122.295 195.19 121.692 196.157 121.16C196.176 121.15 196.195 121.14 196.214 121.129C196.32 121.148 196.42 121.159 196.514 121.159C196.614 121.159 196.707 121.148 196.793 121.126C196.902 121.098 196.968 120.987 196.94 120.877C196.929 120.834 196.905 120.798 196.873 120.771C197.55 120.39 198.107 119.902 198.54 119.313C198.845 119.202 199.159 119.026 199.487 118.782C199.578 118.715 199.596 118.587 199.529 118.496C199.462 118.406 199.334 118.387 199.244 118.454C199.144 118.529 199.045 118.596 198.949 118.656C199.197 118.18 199.378 117.654 199.491 117.081C199.647 116.979 199.809 116.877 199.963 116.786C200.06 116.729 200.092 116.604 200.035 116.506Z" fill="#6697FE" stroke="#6697FE" stroke-width="0.2"/>
<path d="M188.188 119.457C188.286 119.167 188.418 118.92 188.568 118.755C188.643 118.672 188.637 118.542 188.553 118.467C188.47 118.391 188.34 118.398 188.265 118.481C188.139 118.62 188.032 118.792 187.942 118.98C187.825 118.75 187.698 118.519 187.573 118.294C187.237 117.686 186.894 117.063 186.722 116.406C186.786 116.188 186.865 116 186.956 115.836C186.962 115.842 186.967 115.847 186.973 115.853C187.268 116.153 187.882 116.778 187.882 117.25C187.882 117.362 187.973 117.454 188.086 117.454C188.199 117.454 188.29 117.362 188.29 117.25C188.29 116.611 187.623 115.932 187.265 115.567C187.24 115.542 187.214 115.516 187.191 115.492C187.491 115.129 187.875 114.896 188.298 114.639C188.373 114.594 188.448 114.548 188.524 114.501C188.62 114.442 188.649 114.316 188.59 114.22C188.53 114.124 188.404 114.095 188.309 114.154C188.234 114.201 188.16 114.246 188.086 114.29C187.601 114.585 187.13 114.871 186.77 115.37C186.769 115.372 186.767 115.374 186.766 115.377C186.765 115.378 186.764 115.379 186.763 115.381C186.71 115.456 186.659 115.535 186.611 115.62C186.611 115.607 186.61 115.594 186.61 115.581C186.61 115.358 186.627 115.128 186.661 114.9C186.678 114.788 186.601 114.685 186.489 114.668C186.378 114.652 186.274 114.729 186.257 114.84C186.221 115.089 186.202 115.338 186.202 115.581C186.202 115.865 186.239 116.14 186.301 116.406C186.208 116.76 186.149 117.179 186.131 117.683C186.126 117.795 186.214 117.89 186.327 117.894C186.33 117.894 186.332 117.894 186.335 117.894C186.444 117.894 186.534 117.808 186.538 117.698C186.545 117.527 186.555 117.368 186.571 117.219C186.755 117.657 186.987 118.077 187.216 118.491C187.375 118.779 187.525 119.051 187.657 119.325C187.686 119.384 187.716 119.443 187.747 119.501C187.595 120.032 187.573 120.565 187.691 120.781C187.728 120.849 187.798 120.888 187.87 120.888C187.903 120.888 187.937 120.88 187.968 120.863C188.067 120.809 188.103 120.685 188.049 120.586C188.023 120.536 188.005 120.326 188.053 120.012C188.206 120.237 188.374 120.446 188.557 120.638C188.597 120.681 188.651 120.702 188.705 120.702C188.756 120.702 188.806 120.683 188.846 120.646C188.928 120.568 188.931 120.439 188.853 120.357C188.6 120.091 188.378 119.789 188.188 119.457Z" fill="#6697FE" stroke="#6697FE" stroke-width="0.2"/>
<path d="M194.226 115.549C194.365 115.688 194.547 115.758 194.73 115.758C194.912 115.758 195.095 115.688 195.234 115.549L195.495 115.288C195.56 115.223 195.596 115.137 195.596 115.045C195.596 114.954 195.56 114.868 195.495 114.803L194.972 114.28C194.908 114.215 194.821 114.179 194.73 114.179C194.638 114.179 194.552 114.215 194.487 114.28L194.226 114.541C193.948 114.819 193.948 115.271 194.226 115.549L194.226 115.549ZM194.514 114.83L194.73 114.614L195.161 115.045L194.945 115.261C194.827 115.38 194.633 115.38 194.514 115.261C194.396 115.142 194.396 114.949 194.514 114.83Z" fill="#6697FE" stroke="#6697FE" stroke-width="0.2"/>
<path d="M187.516 113.48C187.435 113.558 187.432 113.687 187.51 113.768C187.55 113.81 187.604 113.831 187.657 113.831C187.708 113.831 187.759 113.812 187.799 113.774C187.918 113.66 188.159 113.609 188.3 113.635C188.411 113.655 188.518 113.581 188.538 113.47C188.558 113.359 188.484 113.253 188.373 113.233C188.128 113.189 187.745 113.26 187.516 113.48Z" fill="#6697FE" stroke="#6697FE" stroke-width="0.2"/>
<path d="M191.324 117.401C191.364 117.443 191.417 117.463 191.47 117.463C191.521 117.463 191.573 117.444 191.612 117.406C191.693 117.327 191.695 117.198 191.617 117.117C191.413 116.908 190.974 115.855 191.229 115.23C191.382 114.852 191.443 114.181 191.388 113.478C191.359 113.119 191.254 112.239 190.895 111.841C190.82 111.757 190.691 111.75 190.607 111.826C190.523 111.901 190.516 112.03 190.592 112.114C190.78 112.323 190.929 112.858 190.981 113.511C191.008 113.852 191.005 114.187 190.977 114.474C190.593 113.813 190.013 113.564 189.668 113.415C189.587 113.38 189.518 113.35 189.47 113.324C189.372 113.269 189.247 113.305 189.193 113.403C189.138 113.502 189.173 113.626 189.272 113.681C189.338 113.717 189.416 113.751 189.507 113.79C189.924 113.97 190.551 114.24 190.825 115.146C190.551 115.95 191.027 117.096 191.324 117.401Z" fill="#6697FE" stroke="#6697FE" stroke-width="0.2"/>
<path d="M161.658 113.312L161.658 113.312L161.66 113.311C163.128 112.257 164.789 112.141 166.471 112.482C168.156 112.825 169.846 113.623 171.354 114.379L171.355 114.379C173.126 115.251 174.973 115.852 176.973 116.243L176.973 116.243C178.262 116.491 179.206 116.305 180.035 115.843C180.803 115.414 181.465 114.75 182.205 114.01C182.252 113.962 182.3 113.914 182.349 113.866C182.591 113.623 182.79 113.626 182.88 113.673C182.961 113.715 183.032 113.835 182.942 114.031C181.914 115.604 180.633 116.511 179.16 116.842C177.681 117.175 175.989 116.931 174.141 116.168C173.295 115.818 172.44 115.386 171.571 114.948C171.455 114.889 171.338 114.831 171.221 114.772C170.235 114.276 169.231 113.784 168.215 113.414C166.182 112.674 164.082 112.415 161.946 113.59L161.946 113.59L161.94 113.594C161.808 113.675 161.685 113.631 161.621 113.551C161.587 113.51 161.574 113.466 161.578 113.429C161.581 113.396 161.598 113.354 161.658 113.312Z" fill="#6697FE" stroke="#6697FE" stroke-width="0.3"/>
<path d="M185.439 109.797L185.439 109.797C185.638 110.04 185.576 110.338 185.393 110.515C185.303 110.602 185.19 110.653 185.074 110.652C184.962 110.651 184.83 110.603 184.698 110.46C182.39 107.632 179.455 106.874 176.284 107.069C173.506 107.24 170.53 108.142 167.621 109.025C167.22 109.147 166.82 109.268 166.422 109.387C163.124 110.373 159.964 111.197 157.27 110.795C155.929 110.596 154.705 110.092 153.638 109.153C152.57 108.213 151.65 106.829 150.928 104.855L150.928 104.855L150.925 104.847C150.903 104.796 150.91 104.755 150.934 104.717C150.961 104.674 151.014 104.631 151.084 104.604C151.153 104.577 151.225 104.572 151.28 104.586C151.331 104.599 151.369 104.628 151.391 104.68L151.391 104.68L151.393 104.684C152.171 106.354 153.184 107.776 154.495 108.745C155.808 109.716 157.414 110.225 159.361 110.08C162.174 109.889 164.831 108.987 167.439 108.1C167.976 107.918 168.511 107.736 169.045 107.561C171.982 106.62 175.014 105.871 177.847 106.013C180.673 106.154 183.3 107.18 185.439 109.797Z" fill="#6697FE" stroke="#6697FE" stroke-width="0.3"/>
<path d="M188.357 115.889C187.992 116.778 186.835 118.044 185.239 118.69C184.551 118.969 184.651 119.413 185.008 119.372C186.165 119.238 187.858 118.008 188.613 116.619C189.394 115.183 188.958 114.427 188.357 115.889Z" fill="#6697FE"/>
<path d="M181.519 119.409C180.73 119.443 179.444 119.075 178.531 118.231C178.137 117.867 177.814 118.069 177.938 118.289C178.339 119.004 179.734 119.732 181.013 119.8C182.336 119.869 182.815 119.353 181.519 119.409Z" fill="#6697FE"/>
<defs>
<filter id="filter0_i_43_559" x="1" y="0" width="246.095" height="176.139" filterUnits="userSpaceOnUse" color-interpolation-filters="sRGB">
<feFlood flood-opacity="0" result="BackgroundImageFix"/>
<feBlend mode="normal" in="SourceGraphic" in2="BackgroundImageFix" result="shape"/>
<feColorMatrix in="SourceAlpha" type="matrix" values="0 0 0 0 0 0 0 0 0 0 0 0 0 0 0 0 0 0 127 0" result="hardAlpha"/>
<feOffset dy="6.1386"/>
<feGaussianBlur stdDeviation="8.1848"/>
<feComposite in2="hardAlpha" operator="arithmetic" k2="-1" k3="1"/>
<feColorMatrix type="matrix" values="0 0 0 0 0 0 0 0 0 0 0 0 0 0 0 0 0 0 0.25 0"/>
<feBlend mode="normal" in2="shape" result="effect1_innerShadow_43_559"/>
</filter>
</defs>
</svg>
