<svg width="100" height="100" viewBox="0 0 100 100" fill="none" xmlns="http://www.w3.org/2000/svg">
<path d="M13.6681 9.24865C12.4477 8.02823 10.469 8.02819 9.24867 9.24857C8.02825 10.4689 8.02821 12.4476 9.24859 13.668L18.4099 22.8295C12.1298 30.1246 8.33334 39.6189 8.33334 50C8.33334 56.7512 9.94321 63.275 12.9775 69.1341L8.52896 85.0629C8.27288 85.9787 8.27275 86.9483 8.52879 87.865C9.30242 90.6354 12.1755 92.2542 14.946 91.4804L30.8869 87.0333C36.7409 90.0608 43.2571 91.6666 50 91.6666C60.3808 91.6666 69.875 87.8704 77.17 81.5908L86.3308 90.7521C87.5513 91.9725 89.53 91.9725 90.7504 90.7521C91.9708 89.5317 91.9708 87.5529 90.7504 86.3325L13.6681 9.24865ZM72.7358 77.1566C66.5842 82.3125 58.6546 85.4166 50 85.4166C43.8842 85.4166 38.0003 83.8671 32.7795 80.9562L31.6565 80.33L15.0457 84.9641L19.682 68.3637L19.0543 67.2396C16.1365 62.0142 14.5833 56.1233 14.5833 50C14.5833 41.3452 17.6878 33.4154 22.8439 27.2636L35.3614 39.7813C34.1766 40.2255 33.3333 41.3684 33.3333 42.7083C33.3333 44.4342 34.7325 45.8333 36.4583 45.8333H41.4133L49.7467 54.1666H36.4583L36.0343 54.1954C34.509 54.4021 33.3333 55.7096 33.3333 57.2916C33.3333 59.0175 34.7325 60.4166 36.4583 60.4166H55.2012L55.625 60.3883C55.7229 60.375 55.8196 60.3571 55.9146 60.335L72.7358 77.1566Z" fill="#CCDCFF"/>
<path d="M63.5604 39.5834H52.8408L59.0908 45.8333H63.5604L63.9846 45.805C65.5096 45.5979 66.6854 44.2904 66.6854 42.7083C66.6854 40.9825 65.2863 39.5834 63.5604 39.5834Z" fill="#CCDCFF"/>
<path d="M85.4167 50C85.4167 56.3758 83.7321 62.3583 80.7833 67.5263L85.34 72.0829C89.3492 65.6808 91.6667 58.1108 91.6667 50C91.6667 26.9882 73.0117 8.33337 50 8.33337C41.8892 8.33337 34.3199 10.6508 27.9177 14.6596L32.4745 19.2165C37.6423 16.268 43.6246 14.5834 50 14.5834C69.56 14.5834 85.4167 30.44 85.4167 50Z" fill="#CCDCFF"/>
</svg>
