<svg width="131" height="129" viewBox="0 0 131 129" fill="none" xmlns="http://www.w3.org/2000/svg">
<path d="M14.5062 56.6356C14.5062 56.6356 37.2571 55.7571 42.1739 19.6894C46.5399 -12.3421 84.9044 2.23749 95.9941 15.006C110.36 31.5466 102.702 59.9999 121.286 63.5946C139.87 67.1887 127.734 107.153 99.5247 103.328C64.4334 98.5691 72.9234 118.345 62.3893 126.716C54.8291 132.723 23.8296 126.94 22.7964 105.133C21.927 86.782 13.9008 86.8399 8.21174 84.7596C0.00683396 81.7583 -5.16313 60.0247 14.5062 56.6356Z" fill="#DEE9FF"/>
<path d="M84.478 107.567H46.3045C44.6603 107.565 43.084 106.898 41.9221 105.712C40.7601 104.527 40.1074 102.92 40.1074 101.244V23.4609C40.1074 21.7854 40.7601 20.1784 41.9221 18.9929C43.084 17.8075 44.6603 17.1405 46.3045 17.1385H84.478C86.1223 17.1405 87.6985 17.8075 88.8605 18.9929C90.0225 20.1784 90.6751 21.7854 90.6751 23.4609V101.244C90.6751 102.92 90.0225 104.527 88.8605 105.712C87.6985 106.898 86.1223 107.565 84.478 107.567ZM46.3045 20.0548C45.4193 20.0568 44.571 20.4165 43.9457 21.0551C43.3205 21.6936 42.9693 22.5589 42.9693 23.4609V101.244C42.9693 102.147 43.3205 103.012 43.9457 103.65C44.571 104.289 45.4193 104.649 46.3045 104.651H84.478C85.3633 104.649 86.2116 104.289 86.8368 103.65C87.4621 103.012 87.8132 102.147 87.8132 101.244V23.4609C87.8132 22.5589 87.4621 21.6936 86.8368 21.0551C86.2116 20.4165 85.3633 20.0568 84.478 20.0548H46.3045Z" fill="#0E84E5"/>
<path d="M75.5226 24.9153H55.26L50.0686 19.6252L52.0875 17.568L56.4432 21.999H74.3393L78.6951 17.568L80.7139 19.6252L75.5226 24.9153Z" fill="#0E84E5"/>
<path d="M75.7719 94.9296H56.6851V97.8459H75.7719V94.9296Z" fill="#699CFF"/>
<path d="M76.3434 51.3595C74.4509 49.3509 72.0629 47.9415 69.45 47.291C66.8371 46.6406 64.1037 46.775 61.5596 47.6792L63.2157 52.923C64.8665 52.3406 66.6399 52.2641 68.3302 52.7023C70.0205 53.1406 71.5583 54.0757 72.7649 55.3989C73.9716 56.7222 74.7976 58.3794 75.1472 60.1781C75.4967 61.9767 75.3553 63.8431 74.7395 65.5604L72.6268 63.2973V73.0838H81.7841L78.6353 69.7182C80.2161 66.8168 80.8482 63.4475 80.434 60.1298C80.0198 56.8121 78.5824 53.7302 76.3434 51.3595Z" fill="#699CFF"/>
<path d="M51.6958 61.9878C51.6979 66.0216 53.2152 69.8902 55.9154 72.7466C58.6156 75.6029 62.2788 77.2142 66.1029 77.2277C67.6688 77.2266 69.2242 76.9587 70.709 76.4343L69.0528 71.1905C67.395 71.7752 65.6136 71.8497 63.9171 71.4054C62.2205 70.9611 60.679 70.0163 59.473 68.6815C58.2669 67.3468 57.4462 65.6773 57.1068 63.8685C56.7674 62.0597 56.9234 60.1863 57.5565 58.4676L59.545 60.5375V55.2151C59.5724 55.1875 59.5947 55.1543 59.6235 55.1254L59.545 55.0426V51.0035H50.3877L53.6346 54.383C52.3625 56.6926 51.6936 59.3166 51.6958 61.9878Z" fill="#699CFF"/>
<path d="M67.3941 53.7979H64.7777V64.8373H67.3941V53.7979Z" fill="#699CFF"/>
<path d="M67.3941 66.2173H64.7777V68.9771H67.3941V66.2173Z" fill="#699CFF"/>
</svg>
