<svg width="320" height="320" viewBox="0 0 320 320" fill="none" xmlns="http://www.w3.org/2000/svg">
<path d="M60.1869 145.176C60.1869 145.176 104.496 143.402 114.072 70.5665C122.575 5.88154 197.293 35.3238 218.891 61.1087C246.869 94.511 231.955 151.97 268.148 159.229C304.342 166.487 280.707 247.191 225.767 239.467C157.424 229.857 173.959 269.793 153.443 286.697C138.719 298.828 78.345 287.15 76.3328 243.112C74.6395 206.054 59.0078 206.171 47.928 201.97C31.9483 195.909 21.8794 152.02 60.1869 145.176Z" fill="#DEE9FF"/>
<path d="M210.815 226.065L167.282 183.049L158.662 191.772L202.195 234.789L210.815 226.065Z" fill="#699CFF"/>
<path d="M227.445 237.623L193.576 204.156C193.387 203.97 193.083 203.972 192.897 204.161L180.078 217.134C179.892 217.322 179.893 217.626 180.082 217.812L213.951 251.279C214.139 251.465 214.443 251.464 214.63 251.275L227.449 238.302C227.635 238.114 227.633 237.81 227.445 237.623Z" fill="#0E84E5"/>
<path d="M128.699 204.683C158.648 204.683 182.927 180.404 182.927 150.455C182.927 120.505 158.648 96.2266 128.699 96.2266C98.7494 96.2266 74.4707 120.505 74.4707 150.455C74.4707 180.404 98.7494 204.683 128.699 204.683Z" fill="#0E84E5"/>
<path d="M128.699 195.835C153.762 195.835 174.079 175.517 174.079 150.455C174.079 125.392 153.762 105.075 128.699 105.075C103.637 105.075 83.3193 125.392 83.3193 150.455C83.3193 175.517 103.637 195.835 128.699 195.835Z" fill="#D4E5FF"/>
</svg>
