<svg width="18" height="12" viewBox="0 0 18 12" fill="none" xmlns="http://www.w3.org/2000/svg">
<path d="M9.00245 9.4C9.969 9.4 10.7898 9.0692 11.4648 8.4076C12.1398 7.746 12.4773 6.94267 12.4773 5.9976C12.4773 5.05253 12.139 4.25 11.4623 3.59C10.7857 2.93 9.96409 2.6 8.99755 2.6C8.031 2.6 7.21023 2.9308 6.53523 3.5924C5.86023 4.254 5.52273 5.05733 5.52273 6.0024C5.52273 6.94747 5.86104 7.75 6.53768 8.41C7.21432 9.07 8.03591 9.4 9.00245 9.4ZM8.99509 8.24C8.35745 8.24 7.81705 8.02173 7.37386 7.5852C6.93068 7.1488 6.70909 6.6188 6.70909 5.9952C6.70909 5.37173 6.93232 4.84333 7.37877 4.41C7.82509 3.97667 8.36714 3.76 9.00491 3.76C9.64254 3.76 10.183 3.97827 10.6261 4.4148C11.0693 4.8512 11.2909 5.3812 11.2909 6.0048C11.2909 6.62827 11.0677 7.15667 10.6212 7.59C10.1749 8.02333 9.63286 8.24 8.99509 8.24ZM9 12C7.00909 12 5.20909 11.4467 3.6 10.34C1.99091 9.23333 0.790909 7.78667 0 6C0.790909 4.21333 1.99091 2.76667 3.6 1.66C5.20909 0.553333 7.00909 0 9 0C10.9909 0 12.7909 0.553333 14.4 1.66C16.0091 2.76667 17.2091 4.21333 18 6C17.2091 7.78667 16.0091 9.23333 14.4 10.34C12.7909 11.4467 10.9909 12 9 12ZM8.99652 10.8C10.6488 10.8 12.167 10.3633 13.5511 9.49C14.9352 8.61667 15.9886 7.45333 16.7114 6C15.9886 4.54667 14.9364 3.38333 13.5546 2.51C12.1728 1.63667 10.6558 1.2 9.00348 1.2C7.35116 1.2 5.83295 1.63667 4.44886 2.51C3.06477 3.38333 2.00455 4.54667 1.26818 6C2.00455 7.45333 3.06361 8.61667 4.44539 9.49C5.82716 10.3633 7.3442 10.8 8.99652 10.8Z" fill="#EFF4FF"/>
</svg>
