<svg width="12" height="12" viewBox="0 0 12 12" fill="none" xmlns="http://www.w3.org/2000/svg">
<path d="M0.13125 12V10.875H2.56875L2.2875 10.65C1.4875 10.0125 0.90625 9.31875 0.54375 8.56875C0.18125 7.81875 0 6.98125 0 6.05625C0 4.73125 0.390625 3.54063 1.17188 2.48438C1.95313 1.42813 2.98125 0.7 4.25625 0.3V1.4625C3.31875 1.825 2.5625 2.42813 1.9875 3.27188C1.4125 4.11563 1.125 5.04375 1.125 6.05625C1.125 6.84375 1.27188 7.52813 1.56563 8.10938C1.85938 8.69063 2.25625 9.19375 2.75625 9.61875L3.31875 10.0125V7.6875H4.44375V12H0.13125ZM7.7625 11.7188V10.5375C8.7125 10.175 9.46875 9.57188 10.0312 8.72813C10.5938 7.88438 10.875 6.95625 10.875 5.94375C10.875 5.34375 10.7281 4.73438 10.4344 4.11563C10.1406 3.49688 9.75625 2.95 9.28125 2.475L8.7375 1.9875V4.3125H7.6125V0H11.925V1.125H9.46875L9.75 1.3875C10.5 2.0875 11.0625 2.8375 11.4375 3.6375C11.8125 4.4375 12 5.20625 12 5.94375C12 7.26875 11.6125 8.4625 10.8375 9.525C10.0625 10.5875 9.0375 11.3188 7.7625 11.7188Z" fill="#E8EAED"/>
</svg>
