<svg width="28" height="28" viewBox="0 0 28 28" fill="none" xmlns="http://www.w3.org/2000/svg">
<path d="M14.0079 25.6667C12.3991 25.6667 10.8873 25.3605 9.4725 24.748C8.05753 24.1355 6.82018 23.2993 5.76046 22.2396C4.70073 21.1799 3.86462 19.9419 3.25212 18.5255C2.63962 17.1092 2.33337 15.5958 2.33337 13.9855C2.33337 12.3751 2.63962 10.8617 3.25212 9.44537C3.86462 8.02904 4.70073 6.79587 5.76046 5.74587C6.82018 4.69587 8.05821 3.86462 9.47454 3.25212C10.8909 2.63962 12.4042 2.33337 14.0146 2.33337C15.625 2.33337 17.1384 2.63962 18.5547 3.25212C19.971 3.86462 21.2042 4.69587 22.2542 5.74587C23.3042 6.79587 24.1355 8.0306 24.748 9.45004C25.3605 10.8695 25.6667 12.3835 25.6667 13.9922C25.6667 15.601 25.3605 17.1128 24.748 18.5276C24.1355 19.9426 23.3042 21.1782 22.2542 22.2344C21.2042 23.2904 19.9695 24.1265 18.55 24.7427C17.1306 25.3587 15.6166 25.6667 14.0079 25.6667ZM14 23.9167C16.7685 23.9167 19.1134 22.9493 21.0347 21.0146C22.9561 19.0799 23.9167 16.7417 23.9167 14V13.6209C23.8 14.1264 23.5336 14.5493 23.1172 14.8896C22.7011 15.2299 22.2093 15.4 21.6417 15.4H19.3084C18.6667 15.4 18.1174 15.1716 17.6605 14.7146C17.2035 14.2577 16.975 13.7084 16.975 13.0667V11.9H12.3084V9.56671C12.3084 8.92504 12.5368 8.37573 12.9938 7.91879C13.4507 7.46185 14 7.23337 14.6417 7.23337H15.8084V6.59171C15.8084 6.2806 15.9396 5.89171 16.2021 5.42504C16.4646 4.95837 16.7612 4.67643 17.0917 4.57921C16.6056 4.42365 16.1063 4.30212 15.5937 4.21462C15.0813 4.12712 14.5501 4.08337 14 4.08337C11.2584 4.08337 8.92018 5.04403 6.98546 6.96533C5.05073 8.88664 4.08337 11.2315 4.08337 14H8.45837C9.74171 14 10.8403 14.457 11.7542 15.3709C12.6681 16.2848 13.125 17.3834 13.125 18.6667V19.8334H9.62504V22.8959C10.2862 23.2264 10.9832 23.4792 11.7163 23.6542C12.4493 23.8292 13.2106 23.9167 14 23.9167Z" fill="#EFF4FF"/>
</svg>
