<svg width="22" height="22" viewBox="0 0 22 22" fill="none" xmlns="http://www.w3.org/2000/svg">
<path d="M8.47917 20.1663L8.11251 17.233C7.9139 17.1566 7.72674 17.065 7.55105 16.958C7.37535 16.8511 7.20348 16.7365 7.03542 16.6143L4.30834 17.7601L1.78751 13.4059L4.14792 11.6184C4.13265 11.5115 4.12501 11.4084 4.12501 11.309V10.6903C4.12501 10.591 4.13265 10.4879 4.14792 10.3809L1.78751 8.59342L4.30834 4.23926L7.03542 5.38509C7.20348 5.26287 7.37917 5.14829 7.56251 5.04134C7.74584 4.9344 7.92917 4.84273 8.11251 4.76634L8.47917 1.83301H13.5208L13.8875 4.76634C14.0861 4.84273 14.2733 4.9344 14.449 5.04134C14.6247 5.14829 14.7965 5.26287 14.9646 5.38509L17.6917 4.23926L20.2125 8.59342L17.8521 10.3809C17.8674 10.4879 17.875 10.591 17.875 10.6903V11.309C17.875 11.4084 17.8597 11.5115 17.8292 11.6184L20.1896 13.4059L17.6688 17.7601L14.9646 16.6143C14.7965 16.7365 14.6208 16.8511 14.4375 16.958C14.2542 17.065 14.0708 17.1566 13.8875 17.233L13.5208 20.1663H8.47917ZM10.0833 18.333H11.8938L12.2146 15.9038C12.6882 15.7816 13.1274 15.6021 13.5323 15.3653C13.9372 15.1285 14.3076 14.842 14.6438 14.5059L16.9125 15.4455L17.8063 13.8872L15.8354 12.3976C15.9118 12.1837 15.9653 11.9584 15.9958 11.7215C16.0264 11.4847 16.0417 11.2441 16.0417 10.9997C16.0417 10.7552 16.0264 10.5146 15.9958 10.2778C15.9653 10.041 15.9118 9.81565 15.8354 9.60176L17.8063 8.11217L16.9125 6.55384L14.6438 7.51634C14.3076 7.16495 13.9372 6.87086 13.5323 6.63405C13.1274 6.39724 12.6882 6.21773 12.2146 6.09551L11.9167 3.66634H10.1063L9.78542 6.09551C9.31181 6.21773 8.87258 6.39724 8.46771 6.63405C8.06285 6.87086 7.69237 7.15731 7.35626 7.49342L5.08751 6.55384L4.19376 8.11217L6.16459 9.57884C6.0882 9.80801 6.03473 10.0372 6.00417 10.2663C5.97362 10.4955 5.95834 10.74 5.95834 10.9997C5.95834 11.2441 5.97362 11.4809 6.00417 11.7101C6.03473 11.9393 6.0882 12.1684 6.16459 12.3976L4.19376 13.8872L5.08751 15.4455L7.35626 14.483C7.69237 14.8344 8.06285 15.1285 8.46771 15.3653C8.87258 15.6021 9.31181 15.7816 9.78542 15.9038L10.0833 18.333ZM11.0458 14.208C11.932 14.208 12.6882 13.8948 13.3146 13.2684C13.941 12.642 14.2542 11.8858 14.2542 10.9997C14.2542 10.1136 13.941 9.35731 13.3146 8.73092C12.6882 8.10454 11.932 7.79134 11.0458 7.79134C10.1445 7.79134 9.38438 8.10454 8.76563 8.73092C8.14688 9.35731 7.83751 10.1136 7.83751 10.9997C7.83751 11.8858 8.14688 12.642 8.76563 13.2684C9.38438 13.8948 10.1445 14.208 11.0458 14.208Z" fill="#E8EAED"/>
</svg>
